<?xml version="1.0" encoding="utf-8"?>
<!-- Generator: Adobe Illustrator 23.0.1, SVG Export Plug-In . SVG Version: 6.00 Build 0)  -->
<svg version="1.1" id="Layer_1" xmlns="http://www.w3.org/2000/svg" xmlns:xlink="http://www.w3.org/1999/xlink" x="0px" y="0px"
	 viewBox="0 0 32 32" style="enable-background:new 0 0 32 32;" xml:space="preserve">
<style type="text/css">
	.st0{fill:#2A509B;}
	.st1{fill:#CCC9C8;}
	.st2{fill:#E31C6A;}
</style>
<g>
	<g id="Logo_Care_1_">
		<path class="st0" d="M7.3,9.8v1.4H6.1v3.9H4.2v-3.9H3.5V9.8h0.8V9.4c0-0.7,0.1-1.2,0.3-1.7C4.7,7.2,5,6.9,5.4,6.8l2.1-0.2v0.6
			C7,7.2,6.6,7.4,6.4,7.8C6.2,8.1,6.1,8.5,6.1,9v0.8H7.3z"/>
		<path class="st0" d="M9.9,15.1H8.1V6.8l1.8-0.2V15.1z"/>
		<path class="st0" d="M12.5,15.1l-1.9-5.2h2l0.8,2.7l1-2.7H16l-3.3,7.8h-2c0.3-0.3,0.6-0.6,0.8-0.9c0.3-0.4,0.5-0.7,0.6-1.1
			L12.5,15.1z"/>
		<path class="st0" d="M18.5,15.1h-1.8V9.8h1.7v0.9c0.3-0.3,0.6-0.6,0.9-0.8c0.3-0.2,0.7-0.3,1-0.3c0.6,0,1,0.2,1.3,0.5
			c0.3,0.3,0.4,0.8,0.4,1.4v3.5h-1.8v-3c0-0.3-0.1-0.5-0.2-0.6c-0.1-0.1-0.3-0.2-0.5-0.2c-0.3,0-0.6,0.1-0.7,0.3
			c-0.2,0.2-0.3,0.5-0.3,0.9V15.1z"/>
		<path class="st0" d="M3.5,25.5v-6.8l1.5-0.2v2.8c0.2-0.1,0.4-0.2,0.5-0.2C5.6,21,5.8,21,6,21c0.6,0,1,0.2,1.4,0.6
			c0.4,0.4,0.5,0.9,0.5,1.6c0,0.7-0.2,1.2-0.6,1.7c-0.4,0.4-1,0.6-1.7,0.6c-0.1,0-0.2,0-0.3,0c-0.1,0-0.2,0-0.4,0l-0.5-0.1L3.5,25.5
			z M4.9,24.3c0.1,0,0.2,0,0.3,0.1c0.1,0,0.1,0,0.2,0c0.3,0,0.5-0.1,0.7-0.3c0.2-0.2,0.3-0.5,0.3-0.9c0-0.3-0.1-0.6-0.2-0.8
			c-0.2-0.2-0.4-0.3-0.6-0.3c-0.1,0-0.2,0-0.3,0.1c-0.1,0-0.2,0.1-0.4,0.2V24.3z"/>
		<path class="st0" d="M12.7,23.8L12.5,25c-0.3,0.1-0.6,0.2-0.8,0.3c-0.3,0.1-0.6,0.1-0.8,0.1c-0.7,0-1.3-0.2-1.7-0.6
			c-0.4-0.4-0.6-0.9-0.6-1.6c0-0.7,0.2-1.2,0.7-1.7c0.5-0.5,1-0.7,1.7-0.7c0.6,0,1,0.2,1.4,0.5c0.4,0.3,0.6,0.8,0.6,1.3
			c0,0.1,0,0.2,0,0.4l0,0l-0.1,0.2l-2.9,0.1c0,0.3,0.1,0.5,0.4,0.7c0.2,0.2,0.5,0.3,0.8,0.3c0.2,0,0.5,0,0.8-0.1
			C12.1,24.1,12.4,24,12.7,23.8z M9.9,22.8l1.8-0.1v-0.1c0-0.2-0.1-0.4-0.2-0.5c-0.2-0.1-0.4-0.2-0.6-0.2c-0.3,0-0.5,0.1-0.7,0.2
			C10,22.3,9.9,22.5,9.9,22.8z"/>
		<path class="st0" d="M17.9,18.4v6.8l-1.3,0.2l-0.1-0.3c-0.2,0.1-0.4,0.2-0.6,0.2c-0.2,0.1-0.4,0.1-0.6,0.1c-0.6,0-1-0.2-1.4-0.6
			c-0.3-0.4-0.5-0.9-0.5-1.6c0-0.7,0.2-1.3,0.6-1.7c0.4-0.4,0.9-0.7,1.5-0.7c0.1,0,0.3,0,0.4,0c0.1,0,0.3,0.1,0.4,0.1v-2.4
			L17.9,18.4z M16.4,22.1c-0.1-0.1-0.2-0.1-0.2-0.1c-0.1,0-0.2,0-0.2,0c-0.3,0-0.5,0.1-0.7,0.3c-0.2,0.2-0.3,0.5-0.3,0.9
			c0,0.3,0.1,0.6,0.2,0.8c0.2,0.2,0.4,0.3,0.6,0.3c0.1,0,0.2,0,0.3-0.1c0.1,0,0.2-0.1,0.3-0.2V22.1z"/>
		<path class="st0" d="M19,25.1v-1.2c0.4,0.2,0.7,0.4,0.9,0.5c0.2,0.1,0.4,0.1,0.6,0.1c0.2,0,0.3,0,0.4-0.1c0.1-0.1,0.1-0.2,0.1-0.3
			c0-0.1,0-0.2-0.1-0.2c-0.1-0.1-0.2-0.1-0.3-0.2l-0.5-0.2c-0.4-0.1-0.6-0.3-0.8-0.5c-0.2-0.2-0.3-0.5-0.3-0.8c0-0.4,0.1-0.8,0.4-1
			c0.3-0.3,0.7-0.4,1.2-0.4c0.2,0,0.5,0,0.7,0.1c0.3,0.1,0.5,0.2,0.8,0.3l-0.2,1c-0.2-0.2-0.4-0.3-0.6-0.4c-0.2-0.1-0.4-0.1-0.6-0.1
			c-0.1,0-0.3,0-0.3,0.1c-0.1,0.1-0.1,0.2-0.1,0.3c0,0.1,0,0.2,0.1,0.2c0.1,0.1,0.2,0.1,0.3,0.2l0.5,0.2c0.4,0.1,0.7,0.3,0.8,0.5
			c0.2,0.2,0.3,0.5,0.3,0.8c0,0.5-0.2,0.8-0.5,1.1c-0.3,0.3-0.7,0.4-1.2,0.4c-0.3,0-0.5,0-0.8-0.1C19.5,25.3,19.2,25.2,19,25.1z"/>
		<path class="st1" d="M23.2,25.5c-0.2,0-0.5-0.1-0.6-0.3c-0.2-0.2-0.3-0.4-0.3-0.6c0-0.3,0.1-0.5,0.3-0.6c0.2-0.2,0.4-0.3,0.6-0.3
			c0.2,0,0.5,0.1,0.6,0.3c0.2,0.2,0.3,0.4,0.3,0.6c0,0.2-0.1,0.4-0.3,0.6C23.7,25.4,23.5,25.5,23.2,25.5z"/>
		<path class="st2" d="M28.1,21.9c0.1,0.2,0.2,0.5,0.3,0.7c0.1,0.2,0.1,0.5,0.1,0.7c0,0.6-0.2,1.2-0.6,1.6c-0.4,0.4-0.9,0.6-1.5,0.6
			c-0.6,0-1.1-0.2-1.5-0.7c-0.4-0.4-0.6-1-0.6-1.7c0-0.2,0-0.5,0.1-0.7c0.1-0.2,0.1-0.5,0.3-0.7l1.2,0.1c-0.1,0.2-0.2,0.4-0.3,0.6
			c-0.1,0.2-0.1,0.4-0.1,0.5c0,0.3,0.1,0.6,0.3,0.8c0.2,0.2,0.4,0.3,0.7,0.3c0.3,0,0.5-0.1,0.7-0.3c0.2-0.2,0.3-0.4,0.3-0.7
			c0-0.2,0-0.4-0.1-0.6c-0.1-0.2-0.2-0.5-0.4-0.7L28.1,21.9z"/>
		<path class="st2" d="M26.4,21.2c-0.6,0-1.1-0.2-1.5-0.6c-0.4-0.4-0.6-0.9-0.6-1.5c0-0.6,0.2-1.1,0.6-1.5c0.4-0.4,0.9-0.6,1.5-0.6
			c0.6,0,1.1,0.2,1.5,0.6c0.4,0.4,0.6,0.9,0.6,1.5c0,0.6-0.2,1.1-0.6,1.5C27.5,21,27,21.2,26.4,21.2z M26.4,19.8
			c0.3,0,0.6-0.1,0.8-0.2c0.2-0.1,0.3-0.3,0.3-0.5c0-0.2-0.1-0.4-0.3-0.5c-0.2-0.1-0.5-0.2-0.8-0.2c-0.3,0-0.6,0.1-0.8,0.2
			c-0.2,0.1-0.3,0.3-0.3,0.5c0,0.2,0.1,0.4,0.3,0.5C25.8,19.8,26.1,19.8,26.4,19.8z"/>
		<path class="st2" d="M28.3,12.3v1.3h-2.2c-0.2,0-0.3,0-0.5,0.1c-0.1,0.1-0.2,0.2-0.2,0.4c0,0.2,0.1,0.4,0.2,0.5
			c0.2,0.1,0.4,0.2,0.7,0.2h1.9v1.3h-3.8v-1.2h0.6c-0.3-0.2-0.5-0.4-0.6-0.7c-0.1-0.2-0.2-0.5-0.2-0.7c0-0.3,0.1-0.5,0.2-0.7
			c0.1-0.2,0.3-0.3,0.6-0.5c-0.2-0.2-0.4-0.4-0.6-0.6c-0.1-0.2-0.2-0.5-0.2-0.7c0-0.4,0.1-0.7,0.4-0.9c0.2-0.2,0.6-0.3,1.1-0.3h2.5
			v1.3h-2.2c-0.2,0-0.3,0-0.5,0.1c-0.1,0.1-0.2,0.2-0.2,0.4c0,0.2,0.1,0.4,0.2,0.5c0.2,0.1,0.4,0.2,0.7,0.2H28.3z"/>
	</g>
</g>
</svg>
