<svg xmlns="http://www.w3.org/2000/svg" xmlns:xlink="http://www.w3.org/1999/xlink" width="824" zoomAndPan="magnify" viewBox="0 0 618 133.500001" height="178" preserveAspectRatio="xMidYMid meet" version="1.0"><defs><clipPath id="8a10ab6c5a"><path d="M 61.761719 13.007812 L 90 13.007812 L 90 74 L 61.761719 74 Z M 61.761719 13.007812 " clip-rule="nonzero"/></clipPath><clipPath id="a155b07e67"><path d="M 94 13.007812 L 108 13.007812 L 108 74 L 94 74 Z M 94 13.007812 " clip-rule="nonzero"/></clipPath><clipPath id="489161b071"><path d="M 202 13.007812 L 242 13.007812 L 242 76 L 202 76 Z M 202 13.007812 " clip-rule="nonzero"/></clipPath><clipPath id="e93168d0db"><path d="M 291 13.007812 L 331 13.007812 L 331 76 L 291 76 Z M 291 13.007812 " clip-rule="nonzero"/></clipPath><clipPath id="4615ac6d58"><path d="M 61.761719 93 L 77 93 L 77 114 L 61.761719 114 Z M 61.761719 93 " clip-rule="nonzero"/></clipPath><clipPath id="da6888801d"><path d="M 477 99 L 490 99 L 490 119.855469 L 477 119.855469 Z M 477 99 " clip-rule="nonzero"/></clipPath><clipPath id="4f97940c59"><path d="M 547 98 L 556.410156 98 L 556.410156 114 L 547 114 Z M 547 98 " clip-rule="nonzero"/></clipPath></defs><g clip-path="url(#8a10ab6c5a)"><path fill="#2b509b" d="M 89.3125 36.714844 L 89.3125 46.484375 L 80.40625 46.484375 L 80.40625 73.917969 L 67.167969 73.917969 L 67.167969 46.484375 L 61.761719 46.484375 L 61.761719 36.714844 L 67.167969 36.714844 L 67.167969 33.390625 C 67.066406 29.285156 67.785156 25.328125 69.320312 21.519531 C 69.832031 20.09375 70.59375 18.816406 71.605469 17.6875 C 72.617188 16.558594 73.804688 15.660156 75.167969 14.996094 L 89.847656 13.214844 L 89.847656 17.269531 C 88.425781 17.5625 87.101562 18.097656 85.878906 18.882812 C 84.65625 19.664062 83.613281 20.644531 82.753906 21.8125 C 81.890625 23.175781 81.246094 24.636719 80.832031 26.195312 C 80.414062 27.753906 80.238281 29.335938 80.308594 30.949219 L 80.308594 36.714844 Z M 89.3125 36.714844 " fill-opacity="1" fill-rule="nonzero"/></g><g clip-path="url(#a155b07e67)"><path fill="#2b509b" d="M 107.660156 73.894531 L 94.546875 73.894531 L 94.546875 14.996094 L 107.660156 13.214844 Z M 107.660156 73.894531 " fill-opacity="1" fill-rule="nonzero"/></g><path fill="#2b509b" d="M 125.742188 73.917969 L 112.335938 36.714844 L 126.304688 36.714844 L 132.300781 55.914062 L 139.640625 36.714844 L 151.140625 36.714844 L 127.820312 91.898438 L 113.875 91.898438 C 116.035156 89.847656 117.976562 87.609375 119.699219 85.179688 C 121.484375 82.664062 123.019531 80 124.300781 77.191406 Z M 125.742188 73.917969 " fill-opacity="1" fill-rule="nonzero"/><path fill="#2b509b" d="M 168.414062 73.917969 L 155.46875 73.917969 L 155.46875 36.714844 L 167.410156 36.714844 L 167.410156 42.945312 C 169.152344 40.695312 171.265625 38.871094 173.746094 37.472656 C 176.039062 36.25 178.488281 35.652344 181.085938 35.6875 C 182.757812 35.570312 184.378906 35.804688 185.945312 36.394531 C 187.511719 36.984375 188.886719 37.871094 190.066406 39.058594 C 191.175781 40.464844 191.996094 42.023438 192.523438 43.734375 C 193.050781 45.445312 193.25 47.191406 193.125 48.976562 L 193.125 73.917969 L 180.207031 73.917969 L 180.207031 52.59375 C 180.324219 50.980469 179.921875 49.507812 179.007812 48.171875 C 178.566406 47.660156 178.035156 47.269531 177.410156 47.007812 C 176.785156 46.746094 176.136719 46.636719 175.460938 46.683594 C 174.460938 46.625 173.5 46.796875 172.582031 47.195312 C 171.664062 47.597656 170.886719 48.183594 170.246094 48.953125 C 169.582031 49.917969 169.09375 50.96875 168.78125 52.097656 C 168.472656 53.230469 168.355469 54.378906 168.4375 55.550781 Z M 168.414062 73.917969 " fill-opacity="1" fill-rule="nonzero"/><g clip-path="url(#489161b071)"><path fill="#2b509b" d="M 202.398438 75.679688 L 202.398438 14.996094 L 215.339844 13.214844 L 215.339844 38.328125 C 216.902344 37.511719 218.535156 36.871094 220.234375 36.398438 C 221.6875 35.980469 223.171875 35.769531 224.6875 35.761719 C 225.84375 35.730469 226.988281 35.828125 228.125 36.050781 C 229.257812 36.273438 230.355469 36.617188 231.414062 37.085938 C 232.472656 37.550781 233.464844 38.128906 234.394531 38.816406 C 235.324219 39.503906 236.164062 40.285156 236.921875 41.160156 C 238.550781 43.128906 239.777344 45.324219 240.589844 47.746094 C 241.40625 50.167969 241.753906 52.65625 241.640625 55.207031 C 241.683594 55.882812 241.691406 56.5625 241.660156 57.238281 C 241.628906 57.917969 241.5625 58.589844 241.460938 59.261719 C 241.359375 59.933594 241.222656 60.597656 241.050781 61.253906 C 240.882812 61.910156 240.675781 62.554688 240.433594 63.1875 C 240.195312 63.824219 239.921875 64.445312 239.617188 65.050781 C 239.3125 65.65625 238.972656 66.242188 238.605469 66.8125 C 238.238281 67.382812 237.839844 67.933594 237.414062 68.460938 C 236.988281 68.988281 236.535156 69.496094 236.054688 69.976562 C 235.578125 70.457031 235.074219 70.910156 234.546875 71.335938 C 234.019531 71.765625 233.46875 72.164062 232.898438 72.53125 C 232.328125 72.902344 231.742188 73.238281 231.136719 73.546875 C 230.53125 73.855469 229.910156 74.128906 229.277344 74.371094 C 228.640625 74.613281 227.996094 74.820312 227.339844 74.996094 C 226.683594 75.167969 226.019531 75.308594 225.347656 75.410156 C 224.675781 75.515625 224 75.582031 223.320312 75.617188 C 222.640625 75.648438 221.964844 75.644531 221.285156 75.605469 C 220.527344 75.605469 219.648438 75.605469 218.691406 75.457031 C 217.738281 75.3125 216.636719 75.214844 215.414062 75.019531 L 210.691406 73.894531 Z M 215.339844 65.34375 C 216.269531 65.589844 217.085938 65.769531 217.785156 65.882812 C 218.371094 65.988281 218.957031 66.046875 219.546875 66.054688 C 220.792969 66.0625 221.976562 65.792969 223.09375 65.25 C 224.214844 64.703125 225.152344 63.9375 225.910156 62.953125 C 226.769531 61.832031 227.410156 60.597656 227.832031 59.246094 C 228.253906 57.898438 228.429688 56.519531 228.355469 55.109375 C 228.417969 53.867188 228.265625 52.652344 227.898438 51.464844 C 227.535156 50.277344 226.976562 49.1875 226.226562 48.195312 C 225.578125 47.359375 224.773438 46.710938 223.820312 46.253906 C 222.863281 45.792969 221.855469 45.570312 220.796875 45.582031 C 220.003906 45.609375 219.238281 45.761719 218.496094 46.046875 C 217.414062 46.449219 216.367188 46.9375 215.363281 47.511719 Z M 215.339844 65.34375 " fill-opacity="1" fill-rule="nonzero"/></g><path fill="#2b509b" d="M 284.164062 60.605469 L 282.722656 72.039062 C 280.324219 73.207031 277.828125 74.101562 275.234375 74.726562 C 272.824219 75.300781 270.375 75.59375 267.894531 75.605469 C 266.53125 75.667969 265.175781 75.597656 263.824219 75.394531 C 262.472656 75.191406 261.15625 74.859375 259.871094 74.402344 C 258.582031 73.945312 257.355469 73.367188 256.179688 72.667969 C 255.007812 71.96875 253.914062 71.164062 252.898438 70.253906 C 251.953125 69.363281 251.113281 68.382812 250.378906 67.3125 C 249.644531 66.242188 249.03125 65.109375 248.539062 63.90625 C 248.050781 62.707031 247.691406 61.46875 247.464844 60.191406 C 247.238281 58.914062 247.148438 57.628906 247.195312 56.332031 C 247.167969 54.925781 247.285156 53.53125 247.542969 52.148438 C 247.804688 50.765625 248.199219 49.421875 248.738281 48.121094 C 249.273438 46.820312 249.9375 45.585938 250.730469 44.421875 C 251.519531 43.257812 252.421875 42.1875 253.433594 41.210938 C 254.421875 40.207031 255.503906 39.316406 256.671875 38.535156 C 257.84375 37.75 259.078125 37.09375 260.382812 36.5625 C 261.6875 36.03125 263.03125 35.636719 264.417969 35.378906 C 265.800781 35.121094 267.195312 35.003906 268.605469 35.027344 C 270.910156 34.941406 273.148438 35.285156 275.320312 36.066406 C 277.492188 36.847656 279.4375 38.007812 281.15625 39.546875 C 281.960938 40.289062 282.679688 41.109375 283.304688 42.007812 C 283.933594 42.902344 284.460938 43.855469 284.882812 44.867188 C 285.304688 45.875 285.613281 46.917969 285.808594 47.996094 C 286.007812 49.070312 286.085938 50.15625 286.050781 51.25 C 286.050781 51.984375 286.050781 53.179688 285.878906 54.792969 L 285.878906 55.035156 L 284.726562 56.722656 L 259.308594 57.429688 C 259.367188 58.617188 259.664062 59.738281 260.203125 60.800781 C 260.738281 61.859375 261.46875 62.761719 262.390625 63.511719 C 263.40625 64.335938 264.53125 64.957031 265.769531 65.375 C 267.003906 65.796875 268.277344 65.988281 269.582031 65.957031 C 271.898438 65.851562 274.132812 65.371094 276.289062 64.515625 C 279.058594 63.503906 281.683594 62.199219 284.164062 60.605469 M 259.429688 51.8125 L 275.601562 51.324219 L 275.601562 50.738281 C 275.640625 49.808594 275.480469 48.917969 275.121094 48.066406 C 274.761719 47.210938 274.238281 46.472656 273.546875 45.851562 C 272.835938 45.210938 272.027344 44.726562 271.125 44.402344 C 270.222656 44.074219 269.292969 43.929688 268.335938 43.96875 C 267.261719 43.9375 266.222656 44.097656 265.207031 44.449219 C 264.195312 44.804688 263.28125 45.328125 262.464844 46.023438 C 261.644531 46.769531 260.972656 47.636719 260.457031 48.617188 C 259.941406 49.597656 259.605469 50.640625 259.453125 51.738281 " fill-opacity="1" fill-rule="nonzero"/><g clip-path="url(#e93168d0db)"><path fill="#2b509b" d="M 330.308594 13.214844 L 330.308594 73.917969 L 318.933594 75.703125 L 318.445312 72.820312 C 316.738281 73.769531 314.945312 74.503906 313.0625 75.019531 C 311.296875 75.488281 309.503906 75.726562 307.679688 75.726562 C 306.53125 75.792969 305.386719 75.722656 304.253906 75.527344 C 303.121094 75.332031 302.023438 75.007812 300.964844 74.5625 C 299.90625 74.117188 298.910156 73.554688 297.976562 72.882812 C 297.042969 72.207031 296.199219 71.4375 295.445312 70.574219 C 293.878906 68.53125 292.71875 66.28125 291.964844 63.820312 C 291.214844 61.363281 290.914062 58.847656 291.066406 56.28125 C 290.925781 53.488281 291.296875 50.769531 292.183594 48.117188 C 293.070312 45.464844 294.410156 43.0625 296.203125 40.917969 C 297.0625 39.964844 298.011719 39.117188 299.058594 38.378906 C 300.101562 37.636719 301.21875 37.019531 302.398438 36.527344 C 303.582031 36.03125 304.804688 35.671875 306.066406 35.449219 C 307.328125 35.226562 308.601562 35.140625 309.878906 35.199219 C 312.445312 35.195312 314.894531 35.734375 317.21875 36.8125 L 317.21875 14.996094 Z M 317.320312 46.167969 C 316.625 45.757812 315.890625 45.441406 315.117188 45.214844 C 314.4375 45.027344 313.742188 44.929688 313.035156 44.921875 C 311.816406 44.917969 310.65625 45.183594 309.5625 45.726562 C 308.46875 46.269531 307.554688 47.027344 306.820312 48 C 305.96875 49.105469 305.332031 50.324219 304.910156 51.65625 C 304.492188 52.988281 304.3125 54.351562 304.375 55.746094 C 304.320312 57.054688 304.480469 58.339844 304.859375 59.59375 C 305.238281 60.851562 305.808594 62.007812 306.578125 63.074219 C 307.183594 63.972656 307.964844 64.679688 308.921875 65.195312 C 309.878906 65.710938 310.898438 65.972656 311.984375 65.980469 C 312.882812 65.972656 313.746094 65.800781 314.578125 65.46875 C 315.59375 65.0625 316.539062 64.535156 317.417969 63.878906 Z M 317.320312 46.167969 " fill-opacity="1" fill-rule="nonzero"/></g><path fill="#2b509b" d="M 340.074219 72.210938 L 340.074219 62.070312 C 342.503906 63.699219 345.054688 65.109375 347.730469 66.296875 C 349.339844 66.988281 351.019531 67.355469 352.769531 67.398438 C 353.949219 67.457031 355.035156 67.164062 356.023438 66.519531 C 356.199219 66.398438 356.355469 66.261719 356.5 66.105469 C 356.644531 65.949219 356.769531 65.78125 356.875 65.597656 C 356.980469 65.417969 357.0625 65.222656 357.125 65.023438 C 357.191406 64.820312 357.230469 64.617188 357.246094 64.40625 C 357.265625 64.195312 357.257812 63.984375 357.230469 63.777344 C 357.203125 63.566406 357.148438 63.363281 357.078125 63.167969 C 357.003906 62.96875 356.90625 62.78125 356.792969 62.605469 C 356.675781 62.429688 356.542969 62.269531 356.390625 62.121094 C 355.5 61.402344 354.503906 60.882812 353.40625 60.558594 L 348.511719 58.871094 C 345.707031 58.035156 343.328125 56.527344 341.371094 54.351562 C 340.558594 53.394531 339.941406 52.324219 339.519531 51.140625 C 339.101562 49.960938 338.902344 48.742188 338.921875 47.488281 C 338.890625 46.636719 338.953125 45.796875 339.109375 44.960938 C 339.265625 44.125 339.515625 43.316406 339.851562 42.535156 C 340.191406 41.757812 340.613281 41.023438 341.117188 40.335938 C 341.621094 39.652344 342.195312 39.03125 342.835938 38.472656 C 344.3125 37.28125 345.953125 36.394531 347.757812 35.808594 C 349.5625 35.222656 351.414062 34.980469 353.308594 35.078125 C 355.472656 35.101562 357.601562 35.386719 359.695312 35.933594 C 362.265625 36.609375 364.769531 37.480469 367.207031 38.546875 L 365.589844 47.585938 C 364 46.152344 362.21875 45.003906 360.257812 44.140625 C 358.5 43.382812 356.664062 42.984375 354.753906 42.945312 C 353.617188 42.890625 352.582031 43.183594 351.644531 43.824219 C 351.269531 44.074219 350.976562 44.398438 350.761719 44.796875 C 350.550781 45.195312 350.445312 45.621094 350.445312 46.070312 C 350.40625 46.78125 350.636719 47.390625 351.132812 47.902344 C 352.046875 48.59375 353.054688 49.082031 354.164062 49.367188 L 358.644531 50.980469 C 361.539062 51.828125 364.042969 53.328125 366.15625 55.476562 C 366.9375 56.449219 367.519531 57.53125 367.90625 58.714844 C 368.296875 59.902344 368.460938 61.117188 368.40625 62.363281 C 368.457031 63.28125 368.402344 64.1875 368.25 65.089844 C 368.09375 65.992188 367.839844 66.867188 367.488281 67.710938 C 367.136719 68.558594 366.695312 69.355469 366.164062 70.101562 C 365.632812 70.847656 365.027344 71.527344 364.34375 72.136719 C 362.789062 73.394531 361.0625 74.332031 359.160156 74.945312 C 357.257812 75.5625 355.304688 75.8125 353.308594 75.703125 C 351.046875 75.699219 348.820312 75.414062 346.628906 74.847656 C 344.320312 74.246094 342.121094 73.375 340.023438 72.234375 " fill-opacity="1" fill-rule="nonzero"/><path fill="#979797" d="M 377.53125 66.519531 C 377.5 65.371094 377.699219 64.265625 378.125 63.203125 C 378.550781 62.136719 379.167969 61.199219 379.976562 60.386719 C 380.777344 59.578125 381.703125 58.960938 382.757812 58.535156 C 383.8125 58.113281 384.910156 57.914062 386.046875 57.945312 C 387.203125 57.914062 388.324219 58.109375 389.402344 58.535156 C 390.480469 58.957031 391.433594 59.574219 392.261719 60.386719 C 392.660156 60.789062 393.019531 61.222656 393.335938 61.695312 C 393.648438 62.167969 393.914062 62.664062 394.132812 63.1875 C 394.347656 63.714844 394.511719 64.253906 394.625 64.808594 C 394.734375 65.363281 394.789062 65.925781 394.789062 66.492188 C 394.789062 67.058594 394.734375 67.621094 394.625 68.179688 C 394.511719 68.734375 394.347656 69.273438 394.132812 69.796875 C 393.914062 70.320312 393.648438 70.820312 393.335938 71.292969 C 393.019531 71.761719 392.660156 72.199219 392.261719 72.601562 C 391.4375 73.410156 390.488281 74.027344 389.414062 74.453125 C 388.339844 74.878906 387.226562 75.074219 386.070312 75.042969 C 384.929688 75.050781 383.835938 74.832031 382.789062 74.378906 C 381.742188 73.929688 380.828125 73.289062 380.050781 72.453125 C 379.25 71.652344 378.636719 70.722656 378.210938 69.671875 C 377.789062 68.621094 377.585938 67.527344 377.605469 66.394531 " fill-opacity="1" fill-rule="nonzero"/><path fill="#e11c6a" d="M 438.820312 71.84375 C 436.683594 73.066406 434.433594 74.019531 432.066406 74.703125 C 429.828125 75.324219 427.542969 75.632812 425.21875 75.628906 C 423.824219 75.683594 422.441406 75.601562 421.0625 75.382812 C 419.6875 75.167969 418.34375 74.820312 417.035156 74.34375 C 415.726562 73.863281 414.476562 73.265625 413.285156 72.546875 C 412.09375 71.824219 410.980469 70.996094 409.949219 70.058594 C 408.976562 69.164062 408.109375 68.175781 407.347656 67.09375 C 406.585938 66.015625 405.945312 64.863281 405.429688 63.648438 C 404.917969 62.429688 404.535156 61.171875 404.292969 59.871094 C 404.046875 58.570312 403.941406 57.261719 403.980469 55.941406 C 403.953125 54.542969 404.074219 53.15625 404.34375 51.785156 C 404.613281 50.414062 405.023438 49.085938 405.582031 47.804688 C 406.136719 46.519531 406.820312 45.3125 407.636719 44.175781 C 408.449219 43.039062 409.378906 42 410.414062 41.0625 C 411.5 40.0625 412.671875 39.175781 413.929688 38.402344 C 415.191406 37.628906 416.511719 36.984375 417.894531 36.46875 C 419.28125 35.953125 420.703125 35.578125 422.160156 35.339844 C 423.617188 35.101562 425.085938 35.003906 426.5625 35.054688 C 428.910156 35.050781 431.226562 35.320312 433.511719 35.859375 C 435.789062 36.410156 437.964844 37.222656 440.042969 38.300781 L 438.550781 49.859375 C 436.6875 48.699219 434.722656 47.753906 432.65625 47.023438 C 430.957031 46.40625 429.203125 46.082031 427.394531 46.046875 C 426.042969 45.996094 424.734375 46.199219 423.464844 46.660156 C 422.195312 47.121094 421.058594 47.804688 420.054688 48.710938 C 419.113281 49.546875 418.386719 50.546875 417.882812 51.703125 C 417.378906 52.859375 417.140625 54.070312 417.167969 55.328125 C 417.113281 56.597656 417.320312 57.820312 417.789062 59 C 418.257812 60.179688 418.949219 61.210938 419.859375 62.097656 C 420.828125 62.953125 421.925781 63.597656 423.152344 64.019531 C 424.375 64.441406 425.636719 64.617188 426.929688 64.539062 C 428.941406 64.503906 430.882812 64.113281 432.753906 63.367188 C 435.304688 62.371094 437.726562 61.125 440.019531 59.628906 Z M 438.820312 71.84375 " fill-opacity="1" fill-rule="nonzero"/><path fill="#e11c6a" d="M 445.15625 55.28125 C 445.109375 53.925781 445.199219 52.578125 445.429688 51.242188 C 445.660156 49.90625 446.027344 48.609375 446.523438 47.347656 C 447.023438 46.085938 447.644531 44.890625 448.394531 43.757812 C 449.140625 42.625 449.992188 41.578125 450.957031 40.625 C 451.453125 40.171875 451.96875 39.742188 452.503906 39.335938 C 453.039062 38.929688 453.59375 38.550781 454.164062 38.199219 C 454.734375 37.84375 455.320312 37.515625 455.921875 37.21875 C 456.523438 36.917969 457.136719 36.648438 457.761719 36.402344 C 458.390625 36.160156 459.023438 35.949219 459.671875 35.765625 C 460.316406 35.578125 460.972656 35.425781 461.632812 35.300781 C 462.292969 35.179688 462.957031 35.085938 463.625 35.023438 C 464.292969 34.960938 464.964844 34.929688 465.636719 34.929688 C 466.308594 34.929688 466.980469 34.960938 467.648438 35.023438 C 468.316406 35.085938 468.980469 35.179688 469.640625 35.300781 C 470.300781 35.425781 470.957031 35.578125 471.601562 35.765625 C 472.25 35.949219 472.882812 36.160156 473.511719 36.402344 C 474.136719 36.648438 474.75 36.917969 475.351562 37.21875 C 475.953125 37.515625 476.539062 37.84375 477.109375 38.199219 C 477.679688 38.550781 478.234375 38.929688 478.769531 39.335938 C 479.304688 39.742188 479.820312 40.171875 480.316406 40.625 C 481.285156 41.574219 482.144531 42.617188 482.894531 43.75 C 483.648438 44.882812 484.273438 46.078125 484.773438 47.339844 C 485.277344 48.601562 485.640625 49.902344 485.871094 51.238281 C 486.101562 52.578125 486.191406 53.925781 486.140625 55.28125 C 486.1875 56.636719 486.09375 57.984375 485.859375 59.320312 C 485.628906 60.65625 485.261719 61.953125 484.761719 63.214844 C 484.257812 64.476562 483.632812 65.671875 482.886719 66.804688 C 482.136719 67.9375 481.28125 68.980469 480.316406 69.9375 C 479.824219 70.394531 479.308594 70.824219 478.773438 71.230469 C 478.238281 71.640625 477.6875 72.019531 477.117188 72.378906 C 476.546875 72.734375 475.960938 73.0625 475.359375 73.363281 C 474.757812 73.664062 474.144531 73.9375 473.515625 74.183594 C 472.890625 74.425781 472.253906 74.640625 471.609375 74.828125 C 470.960938 75.011719 470.308594 75.167969 469.644531 75.292969 C 468.984375 75.414062 468.320312 75.507812 467.648438 75.570312 C 466.980469 75.632812 466.308594 75.664062 465.636719 75.664062 C 464.964844 75.664062 464.292969 75.632812 463.625 75.570312 C 462.953125 75.507812 462.289062 75.414062 461.628906 75.292969 C 460.964844 75.167969 460.3125 75.011719 459.664062 74.828125 C 459.019531 74.640625 458.382812 74.425781 457.757812 74.183594 C 457.128906 73.9375 456.515625 73.664062 455.914062 73.363281 C 455.3125 73.0625 454.726562 72.734375 454.15625 72.378906 C 453.585938 72.019531 453.035156 71.640625 452.5 71.230469 C 451.964844 70.824219 451.449219 70.394531 450.957031 69.9375 C 449.992188 68.984375 449.136719 67.9375 448.386719 66.808594 C 447.636719 65.675781 447.011719 64.476562 446.511719 63.214844 C 446.011719 61.957031 445.644531 60.65625 445.410156 59.320312 C 445.179688 57.984375 445.085938 56.636719 445.132812 55.28125 M 458.371094 55.28125 C 458.304688 56.632812 458.449219 57.964844 458.800781 59.277344 C 459.148438 60.585938 459.691406 61.8125 460.425781 62.953125 C 460.5625 63.175781 460.710938 63.386719 460.875 63.589844 C 461.039062 63.792969 461.214844 63.988281 461.40625 64.167969 C 461.59375 64.347656 461.792969 64.515625 462.003906 64.671875 C 462.214844 64.828125 462.433594 64.96875 462.660156 65.097656 C 462.890625 65.226562 463.125 65.335938 463.367188 65.433594 C 463.609375 65.53125 463.859375 65.613281 464.109375 65.679688 C 464.363281 65.746094 464.621094 65.796875 464.878906 65.828125 C 465.140625 65.863281 465.398438 65.878906 465.660156 65.878906 C 465.921875 65.878906 466.183594 65.863281 466.441406 65.828125 C 466.703125 65.796875 466.957031 65.746094 467.210938 65.679688 C 467.464844 65.613281 467.710938 65.53125 467.957031 65.433594 C 468.199219 65.335938 468.433594 65.226562 468.660156 65.097656 C 468.890625 64.96875 469.109375 64.828125 469.320312 64.671875 C 469.527344 64.515625 469.730469 64.347656 469.917969 64.167969 C 470.105469 63.988281 470.28125 63.792969 470.445312 63.589844 C 470.609375 63.386719 470.761719 63.175781 470.898438 62.953125 C 471.625 61.8125 472.167969 60.59375 472.515625 59.285156 C 472.867188 57.980469 473.011719 56.65625 472.953125 55.304688 C 473.070312 52.546875 472.386719 50.007812 470.898438 47.683594 C 470.761719 47.460938 470.613281 47.246094 470.449219 47.039062 C 470.285156 46.835938 470.109375 46.640625 469.921875 46.457031 C 469.734375 46.277344 469.535156 46.105469 469.324219 45.949219 C 469.113281 45.792969 468.894531 45.648438 468.667969 45.523438 C 468.4375 45.394531 468.203125 45.28125 467.960938 45.179688 C 467.71875 45.082031 467.46875 45 467.214844 44.933594 C 466.960938 44.867188 466.703125 44.816406 466.445312 44.785156 C 466.183594 44.75 465.921875 44.734375 465.660156 44.734375 C 465.398438 44.734375 465.136719 44.75 464.878906 44.785156 C 464.617188 44.816406 464.359375 44.867188 464.105469 44.933594 C 463.855469 45 463.605469 45.082031 463.363281 45.179688 C 463.121094 45.28125 462.882812 45.394531 462.65625 45.523438 C 462.425781 45.648438 462.207031 45.792969 461.996094 45.949219 C 461.789062 46.105469 461.589844 46.277344 461.402344 46.457031 C 461.210938 46.640625 461.035156 46.835938 460.875 47.039062 C 460.710938 47.246094 460.5625 47.460938 460.425781 47.683594 C 459.695312 48.820312 459.15625 50.042969 458.804688 51.347656 C 458.453125 52.652344 458.308594 53.980469 458.371094 55.328125 " fill-opacity="1" fill-rule="nonzero"/><path fill="#e11c6a" d="M 531.304688 73.917969 L 518.363281 73.917969 L 518.363281 52.59375 C 518.464844 50.992188 518.058594 49.535156 517.140625 48.222656 C 516.71875 47.707031 516.203125 47.316406 515.597656 47.050781 C 514.988281 46.785156 514.351562 46.667969 513.691406 46.707031 C 512.738281 46.675781 511.832031 46.863281 510.96875 47.269531 C 510.105469 47.675781 509.382812 48.25 508.796875 49.003906 C 508.136719 49.964844 507.652344 51.011719 507.34375 52.136719 C 507.03125 53.261719 506.914062 54.410156 506.984375 55.574219 L 506.984375 73.894531 L 494.042969 73.894531 L 494.042969 36.714844 L 506.082031 36.714844 L 506.082031 42.945312 C 507.871094 40.707031 510 38.859375 512.464844 37.398438 C 514.59375 36.242188 516.871094 35.671875 519.292969 35.6875 C 521.707031 35.59375 523.960938 36.15625 526.046875 37.375 C 528.058594 38.753906 529.566406 40.554688 530.570312 42.773438 C 532.152344 40.59375 534.101562 38.816406 536.417969 37.449219 C 538.613281 36.242188 540.960938 35.648438 543.464844 35.664062 C 544.3125 35.59375 545.152344 35.621094 545.992188 35.738281 C 546.832031 35.859375 547.648438 36.070312 548.4375 36.371094 C 549.230469 36.675781 549.980469 37.0625 550.683594 37.53125 C 551.390625 38 552.035156 38.542969 552.617188 39.15625 C 553.738281 40.707031 554.5625 42.402344 555.089844 44.238281 C 555.621094 46.078125 555.824219 47.949219 555.699219 49.859375 L 555.699219 73.796875 L 542.757812 73.796875 L 542.757812 52.59375 C 542.859375 50.992188 542.453125 49.535156 541.53125 48.222656 C 541.113281 47.707031 540.597656 47.316406 539.988281 47.050781 C 539.382812 46.785156 538.746094 46.667969 538.082031 46.707031 C 537.128906 46.675781 536.222656 46.863281 535.359375 47.265625 C 534.496094 47.671875 533.773438 48.25 533.191406 49.003906 C 532.539062 49.96875 532.058594 51.015625 531.753906 52.140625 C 531.449219 53.265625 531.332031 54.410156 531.402344 55.574219 Z M 531.304688 73.917969 " fill-opacity="1" fill-rule="nonzero"/><g clip-path="url(#4615ac6d58)"><path fill="#231f20" d="M 76.980469 101.5 C 77.019531 103.171875 76.785156 104.800781 76.273438 106.394531 C 75.761719 107.984375 75.003906 109.449219 73.996094 110.78125 C 73.277344 111.65625 72.40625 112.332031 71.382812 112.8125 C 70.355469 113.292969 69.277344 113.527344 68.148438 113.519531 C 63.964844 113.519531 61.761719 109.855469 61.761719 105.507812 C 61.730469 103.839844 61.976562 102.210938 62.5 100.628906 C 63.027344 99.042969 63.796875 97.59375 64.820312 96.273438 C 65.523438 95.40625 66.378906 94.726562 67.382812 94.234375 C 68.390625 93.742188 69.449219 93.488281 70.570312 93.464844 C 74.925781 93.464844 76.980469 97.054688 76.980469 101.5 M 66.996094 97.957031 C 65.46875 100.164062 64.71875 102.605469 64.746094 105.285156 C 64.746094 108.21875 65.871094 110.636719 68.613281 110.636719 C 69.238281 110.617188 69.832031 110.464844 70.390625 110.179688 C 70.945312 109.890625 71.414062 109.5 71.792969 109 C 73.277344 106.78125 74.011719 104.339844 73.996094 101.671875 C 73.996094 99.058594 73.210938 96.273438 70.226562 96.273438 C 69.589844 96.289062 68.988281 96.441406 68.421875 96.734375 C 67.855469 97.027344 67.382812 97.425781 66.996094 97.933594 " fill-opacity="1" fill-rule="nonzero"/></g><path fill="#231f20" d="M 83.78125 113.203125 L 85.296875 103.429688 C 85.59375 101.769531 85.761719 100.277344 85.910156 99.082031 L 88.355469 99.082031 L 88.113281 101.523438 C 88.300781 101.113281 88.539062 100.738281 88.828125 100.394531 C 89.121094 100.050781 89.453125 99.753906 89.824219 99.5 C 90.199219 99.246094 90.601562 99.050781 91.027344 98.910156 C 91.457031 98.769531 91.894531 98.6875 92.34375 98.667969 C 94.007812 98.667969 95.355469 99.886719 95.355469 102.527344 C 95.34375 103.347656 95.269531 104.160156 95.132812 104.96875 L 93.8125 113.128906 L 91.121094 113.128906 L 92.394531 105.214844 C 92.480469 104.664062 92.53125 104.109375 92.539062 103.550781 C 92.539062 102.402344 92.175781 101.523438 91.074219 101.523438 C 89.972656 101.523438 88.136719 103.382812 87.625 106.65625 L 86.59375 113.128906 Z M 83.78125 113.203125 " fill-opacity="1" fill-rule="nonzero"/><path fill="#231f20" d="M 112.140625 112.394531 C 110.851562 113.136719 109.464844 113.503906 107.980469 113.496094 C 104.699219 113.496094 103.085938 111.050781 103.085938 107.703125 C 103.085938 103.480469 105.703125 98.863281 109.765625 98.863281 C 110.023438 98.851562 110.28125 98.871094 110.535156 98.914062 C 110.789062 98.960938 111.035156 99.03125 111.273438 99.125 C 111.511719 99.222656 111.738281 99.34375 111.953125 99.488281 C 112.167969 99.632812 112.363281 99.796875 112.542969 99.980469 C 112.722656 100.167969 112.878906 100.371094 113.015625 100.589844 C 113.152344 100.808594 113.261719 101.039062 113.351562 101.28125 C 113.4375 101.523438 113.5 101.769531 113.535156 102.027344 C 113.570312 102.28125 113.578125 102.539062 113.558594 102.792969 C 113.558594 106.410156 110.378906 107.558594 105.828125 107.4375 C 105.78125 108.121094 105.886719 108.78125 106.144531 109.414062 C 106.355469 109.890625 106.6875 110.261719 107.136719 110.527344 C 107.585938 110.792969 108.070312 110.902344 108.589844 110.855469 C 109.765625 110.859375 110.851562 110.550781 111.84375 109.929688 Z M 109.449219 101.351562 C 107.6875 101.351562 106.511719 103.234375 106.167969 104.921875 C 109.082031 104.921875 111.0625 104.480469 111.0625 102.820312 C 111.074219 102.621094 111.042969 102.425781 110.96875 102.238281 C 110.898438 102.054688 110.789062 101.890625 110.648438 101.75 C 110.503906 101.609375 110.339844 101.503906 110.152344 101.4375 C 109.964844 101.367188 109.769531 101.339844 109.570312 101.351562 " fill-opacity="1" fill-rule="nonzero"/><path fill="#231f20" d="M 139.050781 112.6875 C 137.976562 113.210938 136.84375 113.4375 135.652344 113.371094 C 132.691406 113.371094 130.757812 111.125 130.757812 107.777344 C 130.757812 102.890625 133.890625 98.738281 138.269531 98.738281 C 139.125 98.730469 139.941406 98.910156 140.714844 99.277344 L 140.054688 102.011719 C 139.507812 101.714844 138.917969 101.566406 138.292969 101.574219 C 135.554688 101.574219 133.839844 104.578125 133.839844 107.484375 C 133.839844 109.585938 134.867188 110.757812 136.433594 110.757812 C 137.304688 110.738281 138.121094 110.519531 138.882812 110.097656 Z M 139.050781 112.6875 " fill-opacity="1" fill-rule="nonzero"/><path fill="#231f20" d="M 146.882812 113.175781 L 150.160156 92.730469 L 152.972656 92.730469 L 149.695312 113.175781 Z M 146.882812 113.175781 " fill-opacity="1" fill-rule="nonzero"/><path fill="#231f20" d="M 158.75 113.203125 L 160.976562 99.179688 L 163.8125 99.179688 L 161.5625 113.203125 Z M 161.441406 95.367188 C 161.414062 95.121094 161.433594 94.875 161.507812 94.636719 C 161.578125 94.398438 161.691406 94.179688 161.851562 93.988281 C 162.011719 93.792969 162.199219 93.640625 162.421875 93.523438 C 162.644531 93.40625 162.878906 93.339844 163.128906 93.316406 C 163.347656 93.332031 163.558594 93.390625 163.757812 93.492188 C 163.953125 93.59375 164.121094 93.726562 164.265625 93.898438 C 164.40625 94.070312 164.507812 94.261719 164.570312 94.476562 C 164.628906 94.6875 164.648438 94.902344 164.621094 95.125 C 164.648438 95.375 164.625 95.621094 164.550781 95.863281 C 164.472656 96.105469 164.355469 96.320312 164.191406 96.511719 C 164.027344 96.703125 163.832031 96.855469 163.601562 96.96875 C 163.375 97.078125 163.136719 97.140625 162.882812 97.152344 C 162.664062 97.136719 162.460938 97.078125 162.265625 96.980469 C 162.074219 96.878906 161.910156 96.742188 161.773438 96.574219 C 161.632812 96.40625 161.539062 96.214844 161.480469 96.007812 C 161.421875 95.796875 161.410156 95.582031 161.441406 95.367188 " fill-opacity="1" fill-rule="nonzero"/><path fill="#231f20" d="M 179.054688 112.6875 C 177.992188 113.246094 176.855469 113.503906 175.65625 113.46875 C 172.695312 113.46875 170.761719 111.222656 170.761719 107.875 C 170.761719 102.992188 173.894531 98.835938 178.273438 98.835938 C 179.128906 98.828125 179.945312 99.007812 180.71875 99.375 L 179.984375 101.988281 C 179.4375 101.691406 178.847656 101.542969 178.222656 101.550781 C 175.484375 101.550781 173.769531 104.554688 173.769531 107.460938 C 173.769531 109.5625 174.796875 110.734375 176.363281 110.734375 C 177.234375 110.714844 178.050781 110.492188 178.8125 110.074219 Z M 179.054688 112.6875 " fill-opacity="1" fill-rule="nonzero"/><path fill="#231f20" d="M 186.886719 113.203125 L 190.164062 92.753906 L 192.953125 92.753906 L 190.972656 105.261719 L 192.046875 103.773438 L 195.59375 99.203125 L 199.09375 99.203125 L 194.003906 104.992188 L 197.40625 113.226562 L 194.273438 113.226562 L 191.828125 106.800781 L 190.457031 108.363281 L 189.675781 113.25 Z M 186.886719 113.203125 " fill-opacity="1" fill-rule="nonzero"/><path fill="#231f20" d="M 222.777344 113.203125 C 222.777344 112.371094 222.777344 111.246094 223 110.027344 C 221.824219 112.617188 220.28125 113.519531 218.789062 113.519531 C 216.6875 113.519531 215.292969 111.566406 215.292969 108.632812 C 215.292969 103.746094 218.105469 98.863281 223.609375 98.863281 C 224.835938 98.871094 226.027344 99.082031 227.183594 99.496094 L 225.957031 106.824219 C 225.621094 108.945312 225.457031 111.078125 225.46875 113.226562 Z M 223.953125 101.597656 C 223.570312 101.492188 223.175781 101.441406 222.777344 101.453125 C 220.160156 101.453125 218.152344 104.945312 218.152344 108.121094 C 218.152344 109.585938 218.617188 110.808594 219.84375 110.808594 C 221.066406 110.808594 222.753906 108.851562 223.316406 105.285156 Z M 223.953125 101.597656 " fill-opacity="1" fill-rule="nonzero"/><path fill="#231f20" d="M 234.007812 113.203125 L 235.476562 103.601562 C 235.769531 101.941406 235.941406 100.449219 236.089844 99.253906 L 238.535156 99.253906 L 238.289062 101.695312 C 238.476562 101.285156 238.714844 100.910156 239.007812 100.566406 C 239.296875 100.222656 239.628906 99.921875 240.003906 99.671875 C 240.375 99.417969 240.777344 99.222656 241.207031 99.082031 C 241.632812 98.9375 242.074219 98.859375 242.523438 98.835938 C 244.1875 98.835938 245.53125 100.058594 245.53125 102.695312 C 245.519531 103.515625 245.449219 104.332031 245.3125 105.140625 L 244.015625 113.300781 L 241.347656 113.300781 L 242.621094 105.382812 C 242.726562 104.792969 242.792969 104.199219 242.816406 103.601562 C 242.816406 102.453125 242.449219 101.574219 241.347656 101.574219 C 240.246094 101.574219 238.414062 103.429688 237.898438 106.703125 L 236.871094 113.175781 Z M 234.007812 113.203125 " fill-opacity="1" fill-rule="nonzero"/><path fill="#231f20" d="M 266.425781 92.730469 L 263.980469 108.195312 C 263.714844 109.8125 263.535156 111.441406 263.441406 113.078125 L 260.847656 113.078125 L 261.09375 110.636719 C 260.921875 111.035156 260.699219 111.40625 260.425781 111.742188 C 260.148438 112.082031 259.835938 112.375 259.476562 112.625 C 259.121094 112.875 258.738281 113.074219 258.324219 113.214844 C 257.914062 113.359375 257.492188 113.445312 257.054688 113.46875 C 254.953125 113.46875 253.460938 111.417969 253.460938 108.265625 C 253.460938 103.382812 256.492188 98.8125 260.800781 98.8125 C 261.433594 98.808594 262.035156 98.9375 262.609375 99.203125 L 263.664062 92.707031 Z M 262.171875 101.988281 C 261.695312 101.621094 261.15625 101.441406 260.554688 101.453125 C 258.109375 101.453125 256.347656 104.652344 256.347656 107.804688 C 256.347656 109.488281 256.910156 110.832031 258.230469 110.832031 C 259.550781 110.832031 260.996094 109.195312 261.484375 106.289062 Z M 262.171875 101.988281 " fill-opacity="1" fill-rule="nonzero"/><path fill="#231f20" d="M 288.519531 95.296875 L 287.910156 99.15625 L 290.574219 99.15625 L 290.136719 101.746094 L 287.492188 101.746094 L 286.539062 107.410156 C 286.429688 108.066406 286.363281 108.726562 286.34375 109.390625 C 286.34375 110.148438 286.636719 110.636719 287.394531 110.636719 C 287.722656 110.667969 288.046875 110.667969 288.375 110.636719 L 288.105469 113.25 C 287.511719 113.453125 286.898438 113.550781 286.269531 113.542969 C 286.078125 113.558594 285.886719 113.554688 285.695312 113.527344 C 285.503906 113.5 285.320312 113.453125 285.140625 113.386719 C 284.960938 113.316406 284.789062 113.230469 284.628906 113.125 C 284.464844 113.019531 284.320312 112.898438 284.183594 112.761719 C 284.050781 112.625 283.933594 112.472656 283.832031 112.3125 C 283.730469 112.148438 283.648438 111.972656 283.585938 111.792969 C 283.523438 111.609375 283.480469 111.425781 283.457031 111.234375 C 283.4375 111.042969 283.4375 110.851562 283.457031 110.660156 C 283.460938 109.78125 283.550781 108.910156 283.726562 108.046875 L 284.753906 101.792969 L 283.164062 101.792969 L 283.578125 99.203125 L 285.167969 99.203125 L 285.65625 96.175781 Z M 288.519531 95.296875 " fill-opacity="1" fill-rule="nonzero"/><path fill="#231f20" d="M 296.398438 113.203125 L 299.652344 92.753906 L 302.492188 92.753906 L 301.097656 101.15625 C 301.507812 100.445312 302.058594 99.875 302.757812 99.441406 C 303.457031 99.007812 304.214844 98.765625 305.035156 98.714844 C 306.652344 98.714844 307.996094 99.9375 307.996094 102.476562 C 307.988281 103.296875 307.921875 104.109375 307.800781 104.921875 L 306.429688 113.203125 L 303.738281 113.203125 L 305.011719 105.335938 C 305.101562 104.726562 305.152344 104.117188 305.160156 103.503906 C 305.160156 102.429688 304.742188 101.597656 303.691406 101.597656 C 302.636719 101.597656 300.753906 103.550781 300.289062 106.484375 L 299.089844 113.203125 Z M 296.398438 113.203125 " fill-opacity="1" fill-rule="nonzero"/><path fill="#231f20" d="M 324.828125 112.394531 C 323.542969 113.136719 322.15625 113.503906 320.671875 113.496094 C 317.390625 113.496094 315.777344 111.050781 315.777344 107.703125 C 315.777344 103.480469 318.394531 98.863281 322.457031 98.863281 C 322.714844 98.851562 322.972656 98.867188 323.226562 98.910156 C 323.484375 98.953125 323.730469 99.023438 323.972656 99.117188 C 324.210938 99.214844 324.441406 99.335938 324.65625 99.476562 C 324.871094 99.621094 325.070312 99.789062 325.25 99.972656 C 325.429688 100.160156 325.589844 100.359375 325.726562 100.582031 C 325.863281 100.800781 325.976562 101.03125 326.0625 101.273438 C 326.152344 101.515625 326.214844 101.765625 326.25 102.023438 C 326.285156 102.28125 326.292969 102.535156 326.273438 102.792969 C 326.273438 106.410156 323.09375 107.558594 318.542969 107.4375 C 318.5 108.121094 318.605469 108.777344 318.859375 109.414062 C 319.070312 109.890625 319.402344 110.261719 319.851562 110.527344 C 320.300781 110.792969 320.785156 110.902344 321.304688 110.855469 C 322.480469 110.859375 323.566406 110.550781 324.5625 109.929688 Z M 322.136719 101.351562 C 320.375 101.351562 319.203125 103.234375 318.859375 104.921875 C 321.769531 104.921875 323.628906 104.480469 323.628906 102.820312 C 323.644531 102.617188 323.617188 102.421875 323.546875 102.234375 C 323.476562 102.046875 323.371094 101.882812 323.226562 101.742188 C 323.082031 101.597656 322.914062 101.496094 322.726562 101.425781 C 322.535156 101.359375 322.339844 101.335938 322.136719 101.351562 " fill-opacity="1" fill-rule="nonzero"/><path fill="#231f20" d="M 346.972656 99.15625 L 347.191406 105.96875 C 347.191406 107.605469 347.191406 108.730469 347.191406 110.125 C 347.558594 108.878906 348.046875 107.679688 348.5625 106.164062 L 351.425781 99.128906 L 353.871094 99.128906 L 354.359375 105.996094 C 354.359375 107.582031 354.507812 108.878906 354.359375 110.125 C 354.726562 108.78125 355.09375 107.507812 355.585938 105.996094 L 358.03125 99.128906 L 360.894531 99.128906 L 355.363281 113.203125 L 352.722656 113.203125 L 352.183594 107.09375 C 352.183594 105.703125 352.183594 104.457031 352.183594 102.941406 C 351.597656 104.652344 351.304688 105.703125 350.789062 106.949219 L 348.171875 113.203125 L 345.527344 113.203125 L 344.453125 99.179688 Z M 346.972656 99.15625 " fill-opacity="1" fill-rule="nonzero"/><path fill="#231f20" d="M 378.3125 104.675781 C 378.3125 109.441406 375.5 113.519531 371.488281 113.519531 C 368.503906 113.519531 366.59375 111.078125 366.59375 107.730469 C 366.59375 102.992188 369.382812 98.863281 373.398438 98.863281 C 376.578125 98.863281 378.289062 101.574219 378.289062 104.675781 M 369.554688 107.65625 C 369.554688 109.585938 370.4375 110.929688 371.855469 110.929688 C 373.960938 110.929688 375.378906 107.484375 375.378906 104.675781 C 375.378906 103.234375 374.839844 101.453125 373.128906 101.453125 C 370.875 101.453125 369.554688 105.019531 369.554688 107.65625 " fill-opacity="1" fill-rule="nonzero"/><path fill="#231f20" d="M 385.386719 113.203125 L 386.753906 104.554688 C 387.074219 102.574219 387.21875 100.425781 387.367188 99.179688 L 389.8125 99.179688 C 389.8125 100.132812 389.667969 101.109375 389.542969 102.136719 C 390.351562 100.230469 391.625 98.863281 393.261719 98.863281 L 393.875 98.863281 L 393.3125 102.160156 L 392.773438 102.160156 C 390.769531 102.160156 389.472656 104.601562 389.007812 107.582031 L 388.101562 113.226562 Z M 385.386719 113.203125 " fill-opacity="1" fill-rule="nonzero"/><path fill="#231f20" d="M 399.625 113.175781 L 402.929688 92.730469 L 405.742188 92.730469 L 402.464844 113.175781 Z M 399.625 113.175781 " fill-opacity="1" fill-rule="nonzero"/><path fill="#231f20" d="M 424.753906 92.730469 L 422.304688 108.195312 C 422.039062 109.8125 421.859375 111.441406 421.765625 113.078125 L 419.175781 113.078125 L 419.417969 110.636719 C 419.246094 111.035156 419.023438 111.40625 418.75 111.742188 C 418.476562 112.082031 418.160156 112.375 417.804688 112.625 C 417.445312 112.875 417.0625 113.074219 416.652344 113.214844 C 416.238281 113.359375 415.816406 113.445312 415.382812 113.46875 C 413.277344 113.46875 411.785156 111.417969 411.785156 108.265625 C 411.785156 103.382812 414.820312 98.8125 419.125 98.8125 C 419.757812 98.808594 420.363281 98.9375 420.9375 99.203125 L 421.988281 92.707031 Z M 420.496094 101.988281 C 420.019531 101.621094 419.480469 101.441406 418.878906 101.453125 C 416.433594 101.453125 414.671875 104.652344 414.671875 107.804688 C 414.671875 109.488281 415.234375 110.832031 416.554688 110.832031 C 417.878906 110.832031 419.320312 109.195312 419.808594 106.289062 Z M 420.496094 101.988281 " fill-opacity="1" fill-rule="nonzero"/><path fill="#231f20" d="M 440.804688 113.203125 L 443.03125 99.179688 L 445.890625 99.179688 L 443.640625 113.203125 Z M 443.496094 95.367188 C 443.46875 95.121094 443.488281 94.875 443.558594 94.636719 C 443.632812 94.398438 443.746094 94.179688 443.90625 93.988281 C 444.066406 93.792969 444.253906 93.640625 444.476562 93.523438 C 444.699219 93.40625 444.933594 93.339844 445.183594 93.316406 C 445.402344 93.332031 445.613281 93.390625 445.8125 93.492188 C 446.007812 93.59375 446.175781 93.726562 446.320312 93.898438 C 446.460938 94.070312 446.5625 94.261719 446.625 94.476562 C 446.683594 94.6875 446.703125 94.902344 446.675781 95.125 C 446.703125 95.375 446.679688 95.621094 446.605469 95.863281 C 446.527344 96.105469 446.410156 96.320312 446.246094 96.511719 C 446.082031 96.703125 445.882812 96.855469 445.65625 96.96875 C 445.429688 97.078125 445.191406 97.140625 444.9375 97.152344 C 444.71875 97.136719 444.515625 97.078125 444.320312 96.980469 C 444.128906 96.878906 443.964844 96.742188 443.824219 96.574219 C 443.6875 96.40625 443.59375 96.214844 443.535156 96.007812 C 443.476562 95.796875 443.464844 95.582031 443.496094 95.367188 " fill-opacity="1" fill-rule="nonzero"/><path fill="#231f20" d="M 452.960938 110.050781 C 453.824219 110.625 454.769531 110.941406 455.800781 111.003906 C 456.039062 111.011719 456.265625 110.976562 456.488281 110.890625 C 456.710938 110.808594 456.90625 110.683594 457.078125 110.523438 C 457.25 110.359375 457.378906 110.167969 457.472656 109.949219 C 457.566406 109.730469 457.613281 109.503906 457.613281 109.269531 C 457.613281 108.363281 457.21875 107.828125 456.070312 107.117188 C 455.355469 106.777344 454.78125 106.28125 454.339844 105.625 C 453.902344 104.964844 453.664062 104.242188 453.625 103.453125 C 453.613281 103.136719 453.636719 102.820312 453.695312 102.507812 C 453.75 102.195312 453.839844 101.894531 453.960938 101.601562 C 454.082031 101.308594 454.234375 101.03125 454.414062 100.769531 C 454.59375 100.507812 454.800781 100.265625 455.03125 100.046875 C 455.261719 99.828125 455.515625 99.636719 455.785156 99.472656 C 456.058594 99.308594 456.34375 99.175781 456.644531 99.070312 C 456.945312 98.964844 457.253906 98.894531 457.566406 98.855469 C 457.882812 98.816406 458.199219 98.808594 458.515625 98.835938 C 459.519531 98.808594 460.449219 99.050781 461.304688 99.570312 L 460.570312 102.011719 C 459.898438 101.585938 459.167969 101.375 458.371094 101.378906 C 458.140625 101.355469 457.917969 101.382812 457.699219 101.457031 C 457.480469 101.53125 457.285156 101.648438 457.113281 101.800781 C 456.945312 101.957031 456.8125 102.140625 456.722656 102.351562 C 456.628906 102.5625 456.582031 102.785156 456.585938 103.015625 C 456.585938 103.796875 457.121094 104.332031 458.101562 104.945312 C 458.8125 105.3125 459.386719 105.828125 459.824219 106.5 C 460.261719 107.171875 460.503906 107.90625 460.546875 108.707031 C 460.570312 109.03125 460.554688 109.359375 460.507812 109.679688 C 460.460938 110.003906 460.378906 110.320312 460.261719 110.625 C 460.148438 110.933594 460 111.222656 459.824219 111.496094 C 459.648438 111.773438 459.441406 112.027344 459.210938 112.257812 C 458.980469 112.488281 458.726562 112.691406 458.449219 112.871094 C 458.175781 113.046875 457.882812 113.195312 457.578125 113.308594 C 457.269531 113.421875 456.953125 113.503906 456.628906 113.554688 C 456.308594 113.601562 455.980469 113.613281 455.652344 113.59375 C 454.441406 113.628906 453.339844 113.296875 452.351562 112.589844 Z M 452.960938 110.050781 " fill-opacity="1" fill-rule="nonzero"/><g clip-path="url(#da6888801d)"><path fill="#231f20" d="M 481.980469 99.15625 L 482.910156 105.921875 C 483.128906 107.410156 483.277344 108.363281 483.375 109.414062 C 483.667969 108.558594 483.960938 107.605469 484.523438 106.066406 L 486.972656 99.15625 L 489.957031 99.15625 L 485.652344 109.488281 C 484.621094 112.285156 483.183594 114.859375 481.34375 117.207031 C 480.378906 118.394531 479.164062 119.207031 477.699219 119.652344 L 477.039062 116.769531 C 477.804688 116.484375 478.496094 116.078125 479.117188 115.546875 C 480 114.757812 480.695312 113.832031 481.199219 112.761719 C 481.273438 112.542969 481.273438 112.320312 481.199219 112.101562 L 478.75 99.179688 Z M 481.980469 99.15625 " fill-opacity="1" fill-rule="nonzero"/></g><path fill="#231f20" d="M 507.425781 104.675781 C 507.425781 109.441406 504.613281 113.519531 500.601562 113.519531 C 497.613281 113.519531 495.707031 111.078125 495.707031 107.730469 C 495.707031 102.992188 498.496094 98.863281 502.507812 98.863281 C 505.6875 98.863281 507.402344 101.574219 507.402344 104.675781 M 498.640625 107.65625 C 498.640625 109.585938 499.523438 110.929688 500.941406 110.929688 C 503.046875 110.929688 504.464844 107.484375 504.464844 104.675781 C 504.464844 103.234375 503.925781 101.453125 502.214844 101.453125 C 499.964844 101.453125 498.640625 105.019531 498.640625 107.65625 " fill-opacity="1" fill-rule="nonzero"/><path fill="#231f20" d="M 526.632812 99.15625 L 525.089844 108.925781 C 524.820312 110.585938 524.652344 112.054688 524.503906 113.273438 L 522.058594 113.273438 L 522.300781 110.832031 C 521.90625 111.613281 521.34375 112.25 520.617188 112.738281 C 519.890625 113.230469 519.089844 113.515625 518.214844 113.59375 C 516.503906 113.59375 515.132812 112.492188 515.132812 109.609375 C 515.144531 108.789062 515.226562 107.976562 515.378906 107.167969 L 516.625 99.300781 L 519.292969 99.300781 L 518.070312 106.949219 C 517.949219 107.585938 517.886719 108.230469 517.875 108.878906 C 517.875 110.027344 518.265625 110.855469 519.367188 110.855469 C 520.46875 110.855469 522.203125 109 522.667969 106.09375 L 523.746094 99.277344 Z M 526.632812 99.15625 " fill-opacity="1" fill-rule="nonzero"/><path fill="#231f20" d="M 533.53125 113.203125 L 534.902344 104.554688 C 535.21875 102.574219 535.367188 100.425781 535.515625 99.179688 L 537.960938 99.179688 C 537.960938 100.132812 537.8125 101.109375 537.691406 102.136719 C 538.5 100.230469 539.769531 98.863281 541.386719 98.863281 L 541.996094 98.863281 L 541.433594 102.160156 L 540.898438 102.160156 C 538.890625 102.160156 537.59375 104.601562 537.128906 107.582031 L 536.417969 113.203125 Z M 533.53125 113.203125 " fill-opacity="1" fill-rule="nonzero"/><g clip-path="url(#4f97940c59)"><path fill="#231f20" d="M 548.066406 110.050781 C 548.925781 110.625 549.871094 110.941406 550.902344 111.003906 C 551.140625 111.011719 551.371094 110.976562 551.589844 110.890625 C 551.8125 110.808594 552.007812 110.683594 552.179688 110.523438 C 552.351562 110.359375 552.484375 110.167969 552.574219 109.949219 C 552.667969 109.730469 552.714844 109.503906 552.714844 109.269531 C 552.714844 108.363281 552.324219 107.828125 551.171875 107.117188 C 550.484375 106.761719 549.929688 106.257812 549.515625 105.601562 C 549.097656 104.945312 548.875 104.230469 548.847656 103.453125 C 548.839844 103.136719 548.863281 102.820312 548.917969 102.507812 C 548.976562 102.195312 549.066406 101.894531 549.1875 101.601562 C 549.308594 101.308594 549.457031 101.03125 549.640625 100.769531 C 549.820312 100.507812 550.023438 100.265625 550.257812 100.046875 C 550.488281 99.828125 550.738281 99.636719 551.011719 99.472656 C 551.28125 99.308594 551.570312 99.175781 551.871094 99.070312 C 552.167969 98.964844 552.476562 98.894531 552.792969 98.855469 C 553.109375 98.816406 553.425781 98.808594 553.742188 98.835938 C 554.742188 98.808594 555.671875 99.050781 556.53125 99.570312 L 555.796875 102.011719 C 555.125 101.585938 554.390625 101.375 553.59375 101.378906 C 553.367188 101.355469 553.140625 101.382812 552.921875 101.457031 C 552.703125 101.53125 552.511719 101.648438 552.339844 101.800781 C 552.171875 101.957031 552.039062 102.140625 551.945312 102.351562 C 551.855469 102.5625 551.808594 102.785156 551.808594 103.015625 C 551.808594 103.796875 552.347656 104.332031 553.324219 104.945312 C 554.039062 105.3125 554.613281 105.828125 555.050781 106.5 C 555.488281 107.171875 555.726562 107.90625 555.773438 108.707031 C 555.792969 109.039062 555.777344 109.367188 555.726562 109.695312 C 555.675781 110.023438 555.59375 110.34375 555.472656 110.652344 C 555.351562 110.964844 555.203125 111.257812 555.019531 111.535156 C 554.835938 111.8125 554.625 112.066406 554.386719 112.296875 C 554.148438 112.53125 553.886719 112.734375 553.605469 112.910156 C 553.324219 113.085938 553.027344 113.230469 552.714844 113.339844 C 552.398438 113.453125 552.078125 113.53125 551.75 113.570312 C 551.417969 113.613281 551.089844 113.621094 550.757812 113.59375 C 549.542969 113.628906 548.441406 113.296875 547.453125 112.589844 Z M 548.066406 110.050781 " fill-opacity="1" fill-rule="nonzero"/></g></svg>