<svg xmlns="http://www.w3.org/2000/svg" xmlns:xlink="http://www.w3.org/1999/xlink" width="500" zoomAndPan="magnify" viewBox="0 0 375 374.999991" height="500" preserveAspectRatio="xMidYMid meet" version="1.0"><defs><clipPath id="7cc64ef79a"><path d="M 116.132812 151.765625 L 124.375 151.765625 L 124.375 169.453125 L 116.132812 169.453125 Z M 116.132812 151.765625 " clip-rule="nonzero"/></clipPath><clipPath id="b3f720999a"><path d="M 125.28125 151.765625 L 129.367188 151.765625 L 129.367188 169.453125 L 125.28125 169.453125 Z M 125.28125 151.765625 " clip-rule="nonzero"/></clipPath><clipPath id="8f23aa4ee1"><path d="M 156 151.765625 L 167.503906 151.765625 L 167.503906 169.90625 L 156 169.90625 Z M 156 151.765625 " clip-rule="nonzero"/></clipPath><clipPath id="5cb47d02d6"><path d="M 181.125 151.765625 L 192.472656 151.765625 L 192.472656 169.90625 L 181.125 169.90625 Z M 181.125 151.765625 " clip-rule="nonzero"/></clipPath><clipPath id="8d357f0884"><path d="M 238.328125 158.101562 L 256.417969 158.101562 L 256.417969 169.453125 L 238.328125 169.453125 Z M 238.328125 158.101562 " clip-rule="nonzero"/></clipPath><clipPath id="b5a99364fd"><path d="M 116.132812 174.445312 L 120.742188 174.445312 L 120.742188 180.347656 L 116.132812 180.347656 Z M 116.132812 174.445312 " clip-rule="nonzero"/></clipPath><clipPath id="f674aa9ded"><path d="M 233.789062 176 L 237.875 176 L 237.875 182.070312 L 233.789062 182.070312 Z M 233.789062 176 " clip-rule="nonzero"/></clipPath><clipPath id="7b5bf7f16b"><path d="M 253.765625 176 L 256.417969 176 L 256.417969 180.347656 L 253.765625 180.347656 Z M 253.765625 176 " clip-rule="nonzero"/></clipPath></defs><g clip-path="url(#7cc64ef79a)"><path fill="#2b509b" d="M 123.945312 158.488281 L 123.945312 161.257812 L 121.421875 161.257812 L 121.421875 169.039062 L 117.667969 169.039062 L 117.667969 161.257812 L 116.132812 161.257812 L 116.132812 158.488281 L 117.667969 158.488281 L 117.667969 157.546875 C 117.636719 156.382812 117.84375 155.257812 118.277344 154.179688 C 118.421875 153.773438 118.640625 153.414062 118.925781 153.089844 C 119.210938 152.773438 119.546875 152.515625 119.933594 152.328125 L 124.097656 151.824219 L 124.097656 152.972656 C 123.695312 153.054688 123.320312 153.207031 122.972656 153.429688 C 122.625 153.652344 122.332031 153.929688 122.085938 154.261719 C 121.585938 155.050781 121.355469 155.917969 121.394531 156.851562 L 121.394531 158.488281 Z M 123.945312 158.488281 " fill-opacity="1" fill-rule="nonzero"/></g><g clip-path="url(#b3f720999a)"><path fill="#2b509b" d="M 129.152344 169.035156 L 125.429688 169.035156 L 125.429688 152.328125 L 129.152344 151.824219 Z M 129.152344 169.035156 " fill-opacity="1" fill-rule="nonzero"/></g><path fill="#2b509b" d="M 134.277344 169.039062 L 130.476562 158.488281 L 134.4375 158.488281 L 136.140625 163.933594 L 138.222656 158.488281 L 141.484375 158.488281 L 134.871094 174.140625 L 130.914062 174.140625 C 131.527344 173.558594 132.074219 172.921875 132.566406 172.234375 C 133.070312 171.519531 133.507812 170.765625 133.867188 169.96875 Z M 134.277344 169.039062 " fill-opacity="1" fill-rule="nonzero"/><path fill="#2b509b" d="M 146.378906 169.039062 L 142.710938 169.039062 L 142.710938 158.488281 L 146.097656 158.488281 L 146.097656 160.257812 C 146.589844 159.617188 147.1875 159.097656 147.894531 158.703125 C 148.542969 158.355469 149.238281 158.1875 149.976562 158.195312 C 150.449219 158.164062 150.910156 158.230469 151.351562 158.398438 C 151.796875 158.5625 152.1875 158.816406 152.523438 159.152344 C 152.835938 159.550781 153.066406 159.992188 153.21875 160.480469 C 153.367188 160.964844 153.425781 161.460938 153.390625 161.96875 L 153.390625 169.039062 L 149.726562 169.039062 L 149.726562 162.992188 C 149.757812 162.535156 149.644531 162.117188 149.386719 161.738281 C 149.261719 161.59375 149.109375 161.484375 148.933594 161.410156 C 148.753906 161.335938 148.570312 161.300781 148.378906 161.316406 C 148.09375 161.296875 147.824219 161.347656 147.5625 161.460938 C 147.304688 161.574219 147.082031 161.742188 146.898438 161.960938 C 146.511719 162.523438 146.339844 163.148438 146.386719 163.832031 Z M 146.378906 169.039062 " fill-opacity="1" fill-rule="nonzero"/><g clip-path="url(#8f23aa4ee1)"><path fill="#2b509b" d="M 156.019531 169.539062 L 156.019531 152.328125 L 159.691406 151.824219 L 159.691406 158.945312 C 160.132812 158.714844 160.597656 158.53125 161.078125 158.398438 C 161.492188 158.28125 161.910156 158.21875 162.339844 158.21875 C 163.003906 158.199219 163.640625 158.324219 164.25 158.59375 C 164.855469 158.863281 165.375 159.246094 165.808594 159.75 C 166.273438 160.308594 166.621094 160.929688 166.851562 161.617188 C 167.082031 162.304688 167.179688 163.011719 167.148438 163.734375 C 167.160156 163.925781 167.160156 164.117188 167.15625 164.308594 C 167.144531 164.5 167.125 164.691406 167.097656 164.882812 C 167.070312 165.074219 167.03125 165.261719 166.984375 165.449219 C 166.933594 165.632812 166.875 165.816406 166.808594 165.996094 C 166.738281 166.175781 166.660156 166.351562 166.574219 166.523438 C 166.488281 166.695312 166.390625 166.863281 166.289062 167.023438 C 166.183594 167.1875 166.070312 167.34375 165.949219 167.492188 C 165.828125 167.640625 165.699219 167.785156 165.5625 167.921875 C 165.429688 168.058594 165.285156 168.1875 165.136719 168.308594 C 164.988281 168.429688 164.832031 168.542969 164.671875 168.644531 C 164.507812 168.753906 164.34375 168.847656 164.171875 168.933594 C 163.996094 169.023438 163.824219 169.101562 163.640625 169.167969 C 163.460938 169.238281 163.277344 169.296875 163.089844 169.34375 C 162.90625 169.394531 162.71875 169.433594 162.527344 169.464844 C 162.335938 169.492188 162.144531 169.511719 161.953125 169.523438 C 161.761719 169.53125 161.570312 169.527344 161.375 169.519531 C 161.160156 169.519531 160.910156 169.519531 160.640625 169.476562 C 160.371094 169.433594 160.058594 169.410156 159.710938 169.351562 L 158.371094 169.035156 Z M 159.691406 166.609375 C 159.953125 166.675781 160.183594 166.730469 160.382812 166.761719 C 160.546875 166.789062 160.714844 166.808594 160.882812 166.808594 C 161.238281 166.8125 161.570312 166.734375 161.890625 166.582031 C 162.207031 166.425781 162.472656 166.210938 162.6875 165.929688 C 163.191406 165.273438 163.421875 164.53125 163.378906 163.707031 C 163.417969 162.980469 163.214844 162.324219 162.777344 161.746094 C 162.59375 161.507812 162.363281 161.324219 162.09375 161.195312 C 161.824219 161.0625 161.539062 161 161.238281 161.003906 C 161.011719 161.011719 160.796875 161.054688 160.585938 161.136719 C 160.277344 161.25 159.980469 161.386719 159.699219 161.550781 Z M 159.691406 166.609375 " fill-opacity="1" fill-rule="nonzero"/></g><path fill="#2b509b" d="M 179.207031 165.265625 L 178.800781 168.507812 C 178.121094 168.835938 177.414062 169.089844 176.675781 169.269531 C 175.992188 169.433594 175.296875 169.515625 174.59375 169.519531 C 173.8125 169.554688 173.054688 169.441406 172.320312 169.179688 C 171.582031 168.914062 170.921875 168.523438 170.339844 168 C 169.800781 167.488281 169.386719 166.890625 169.105469 166.199219 C 168.824219 165.511719 168.695312 164.796875 168.722656 164.054688 C 168.707031 163.246094 168.855469 162.46875 169.164062 161.722656 C 169.46875 160.976562 169.914062 160.324219 170.492188 159.761719 C 171.058594 159.1875 171.71875 158.75 172.464844 158.445312 C 173.210938 158.140625 173.988281 157.996094 174.796875 158.011719 C 175.449219 157.984375 176.085938 158.082031 176.699219 158.304688 C 177.316406 158.527344 177.867188 158.855469 178.355469 159.292969 C 178.816406 159.71875 179.167969 160.21875 179.414062 160.800781 C 179.652344 161.378906 179.765625 161.984375 179.742188 162.609375 C 179.742188 162.820312 179.742188 163.160156 179.695312 163.613281 L 179.695312 163.683594 L 179.367188 164.164062 L 172.160156 164.363281 C 172.175781 164.699219 172.261719 165.019531 172.414062 165.320312 C 172.566406 165.621094 172.769531 165.875 173.035156 166.089844 C 173.628906 166.570312 174.308594 166.800781 175.074219 166.78125 C 175.730469 166.753906 176.363281 166.617188 176.972656 166.371094 C 177.761719 166.085938 178.503906 165.714844 179.207031 165.265625 M 172.191406 162.769531 L 176.78125 162.632812 L 176.78125 162.464844 C 176.792969 162.203125 176.746094 161.949219 176.644531 161.707031 C 176.542969 161.464844 176.390625 161.257812 176.199219 161.078125 C 175.777344 160.699219 175.285156 160.523438 174.71875 160.546875 C 174.089844 160.527344 173.535156 160.71875 173.054688 161.128906 C 172.574219 161.566406 172.289062 162.105469 172.199219 162.75 " fill-opacity="1" fill-rule="nonzero"/><g clip-path="url(#5cb47d02d6)"><path fill="#2b509b" d="M 192.296875 151.824219 L 192.296875 169.039062 L 189.070312 169.546875 L 188.929688 168.730469 C 188.445312 169 187.9375 169.207031 187.402344 169.351562 C 186.902344 169.484375 186.394531 169.550781 185.875 169.554688 C 185.21875 169.589844 184.582031 169.480469 183.972656 169.222656 C 183.363281 168.96875 182.84375 168.589844 182.40625 168.089844 C 181.964844 167.511719 181.636719 166.875 181.421875 166.175781 C 181.207031 165.480469 181.121094 164.765625 181.167969 164.039062 C 181.125 163.246094 181.230469 162.472656 181.484375 161.722656 C 181.734375 160.96875 182.117188 160.289062 182.621094 159.679688 C 183.117188 159.132812 183.699219 158.71875 184.378906 158.433594 C 185.058594 158.152344 185.765625 158.023438 186.5 158.058594 C 187.230469 158.058594 187.921875 158.210938 188.582031 158.515625 L 188.582031 152.328125 Z M 188.613281 161.167969 C 188.414062 161.054688 188.207031 160.964844 187.988281 160.898438 C 187.792969 160.84375 187.597656 160.816406 187.398438 160.816406 C 187.050781 160.816406 186.722656 160.890625 186.414062 161.046875 C 186.101562 161.199219 185.84375 161.414062 185.632812 161.6875 C 185.136719 162.335938 184.902344 163.070312 184.941406 163.886719 C 184.910156 164.652344 185.117188 165.34375 185.566406 165.964844 C 185.738281 166.21875 185.957031 166.421875 186.230469 166.566406 C 186.5 166.710938 186.789062 166.785156 187.097656 166.789062 C 187.351562 166.785156 187.597656 166.738281 187.835938 166.644531 C 188.121094 166.527344 188.390625 166.378906 188.640625 166.191406 Z M 188.613281 161.167969 " fill-opacity="1" fill-rule="nonzero"/></g><path fill="#2b509b" d="M 195.066406 168.554688 L 195.066406 165.679688 C 195.753906 166.140625 196.480469 166.539062 197.234375 166.878906 C 197.691406 167.074219 198.171875 167.175781 198.667969 167.191406 C 199 167.207031 199.308594 167.125 199.589844 166.941406 C 199.6875 166.871094 199.769531 166.785156 199.832031 166.679688 C 199.890625 166.578125 199.925781 166.464844 199.933594 166.34375 C 199.945312 166.222656 199.929688 166.105469 199.886719 165.992188 C 199.84375 165.878906 199.78125 165.777344 199.695312 165.691406 C 199.441406 165.492188 199.15625 165.34375 198.847656 165.25 L 197.460938 164.773438 C 196.664062 164.535156 195.988281 164.109375 195.433594 163.492188 C 194.957031 162.929688 194.726562 162.28125 194.738281 161.542969 C 194.71875 161.054688 194.808594 160.585938 195.003906 160.140625 C 195.195312 159.691406 195.480469 159.308594 195.847656 158.988281 C 196.265625 158.648438 196.730469 158.398438 197.246094 158.230469 C 197.757812 158.066406 198.28125 157.996094 198.820312 158.023438 C 199.433594 158.03125 200.035156 158.113281 200.628906 158.265625 C 201.359375 158.457031 202.070312 158.707031 202.761719 159.007812 L 202.300781 161.570312 C 201.851562 161.164062 201.347656 160.839844 200.789062 160.59375 C 200.292969 160.378906 199.769531 160.265625 199.226562 160.257812 C 198.90625 160.238281 198.613281 160.324219 198.347656 160.503906 C 198.117188 160.65625 198.003906 160.871094 198.007812 161.144531 C 197.996094 161.34375 198.058594 161.515625 198.199219 161.664062 C 198.460938 161.855469 198.746094 161.996094 199.0625 162.078125 L 200.332031 162.535156 C 201.152344 162.773438 201.863281 163.199219 202.460938 163.808594 C 202.917969 164.382812 203.132812 165.03125 203.101562 165.765625 C 203.128906 166.289062 203.042969 166.792969 202.839844 167.28125 C 202.636719 167.765625 202.339844 168.183594 201.949219 168.535156 C 201.507812 168.890625 201.015625 169.15625 200.476562 169.332031 C 199.9375 169.507812 199.386719 169.578125 198.820312 169.546875 C 198.175781 169.546875 197.546875 169.464844 196.921875 169.304688 C 196.269531 169.132812 195.644531 168.886719 195.050781 168.5625 " fill-opacity="1" fill-rule="nonzero"/><path fill="#979797" d="M 205.6875 166.941406 C 205.679688 166.617188 205.734375 166.304688 205.855469 166 C 205.976562 165.699219 206.152344 165.433594 206.382812 165.203125 C 206.609375 164.972656 206.871094 164.796875 207.171875 164.675781 C 207.46875 164.554688 207.78125 164.5 208.101562 164.507812 C 208.429688 164.5 208.75 164.554688 209.054688 164.675781 C 209.359375 164.796875 209.628906 164.972656 209.867188 165.203125 C 209.980469 165.316406 210.082031 165.441406 210.167969 165.574219 C 210.261719 165.707031 210.335938 165.847656 210.394531 165.996094 C 210.457031 166.144531 210.503906 166.296875 210.535156 166.457031 C 210.566406 166.613281 210.582031 166.773438 210.582031 166.933594 C 210.582031 167.09375 210.566406 167.253906 210.535156 167.410156 C 210.503906 167.570312 210.457031 167.722656 210.394531 167.871094 C 210.335938 168.019531 210.261719 168.160156 210.167969 168.292969 C 210.082031 168.429688 209.980469 168.550781 209.867188 168.664062 C 209.632812 168.894531 209.363281 169.070312 209.058594 169.191406 C 208.753906 169.3125 208.4375 169.367188 208.109375 169.359375 C 207.785156 169.359375 207.476562 169.296875 207.179688 169.171875 C 206.882812 169.042969 206.625 168.859375 206.402344 168.625 C 206.175781 168.398438 206 168.132812 205.882812 167.835938 C 205.761719 167.539062 205.703125 167.226562 205.710938 166.90625 " fill-opacity="1" fill-rule="nonzero"/><path fill="#e11c6a" d="M 223.070312 168.449219 C 222.464844 168.796875 221.828125 169.070312 221.15625 169.261719 C 220.519531 169.4375 219.871094 169.527344 219.210938 169.527344 C 218.414062 169.554688 217.640625 169.433594 216.890625 169.160156 C 216.140625 168.886719 215.472656 168.484375 214.882812 167.945312 C 214.324219 167.429688 213.898438 166.828125 213.601562 166.128906 C 213.304688 165.425781 213.167969 164.699219 213.191406 163.941406 C 213.171875 163.140625 213.324219 162.371094 213.644531 161.632812 C 213.960938 160.898438 214.417969 160.257812 215.015625 159.722656 C 215.636719 159.148438 216.34375 158.714844 217.136719 158.417969 C 217.929688 158.125 218.746094 157.988281 219.59375 158.019531 C 220.261719 158.015625 220.917969 158.09375 221.566406 158.246094 C 222.210938 158.402344 222.828125 158.632812 223.417969 158.9375 L 222.996094 162.214844 C 222.464844 161.886719 221.90625 161.621094 221.324219 161.414062 C 220.839844 161.238281 220.34375 161.144531 219.828125 161.136719 C 219.445312 161.121094 219.074219 161.179688 218.714844 161.308594 C 218.355469 161.441406 218.03125 161.632812 217.75 161.890625 C 217.480469 162.128906 217.277344 162.410156 217.132812 162.738281 C 216.988281 163.066406 216.921875 163.410156 216.929688 163.765625 C 216.914062 164.128906 216.972656 164.476562 217.105469 164.808594 C 217.238281 165.144531 217.433594 165.4375 217.691406 165.6875 C 217.96875 165.929688 218.28125 166.113281 218.628906 166.230469 C 218.972656 166.351562 219.332031 166.402344 219.699219 166.378906 C 220.269531 166.371094 220.820312 166.257812 221.347656 166.046875 C 222.074219 165.765625 222.761719 165.410156 223.410156 164.988281 Z M 223.070312 168.449219 " fill-opacity="1" fill-rule="nonzero"/><path fill="#e11c6a" d="M 224.867188 163.753906 C 224.839844 162.976562 224.96875 162.226562 225.257812 161.503906 C 225.542969 160.78125 225.960938 160.144531 226.511719 159.597656 C 226.792969 159.339844 227.097656 159.109375 227.421875 158.910156 C 227.746094 158.707031 228.085938 158.539062 228.441406 158.402344 C 228.800781 158.261719 229.164062 158.15625 229.539062 158.085938 C 229.914062 158.019531 230.292969 157.980469 230.675781 157.980469 C 231.058594 157.980469 231.4375 158.019531 231.8125 158.085938 C 232.1875 158.15625 232.550781 158.261719 232.910156 158.402344 C 233.265625 158.539062 233.605469 158.707031 233.929688 158.910156 C 234.253906 159.109375 234.558594 159.339844 234.839844 159.597656 C 235.394531 160.140625 235.816406 160.777344 236.105469 161.503906 C 236.390625 162.226562 236.519531 162.976562 236.492188 163.753906 C 236.515625 164.53125 236.386719 165.28125 236.097656 166.003906 C 235.8125 166.726562 235.390625 167.363281 234.839844 167.910156 C 234.558594 168.171875 234.257812 168.402344 233.933594 168.601562 C 233.605469 168.804688 233.265625 168.976562 232.910156 169.113281 C 232.554688 169.253906 232.1875 169.359375 231.8125 169.429688 C 231.4375 169.5 231.058594 169.535156 230.675781 169.535156 C 230.292969 169.535156 229.914062 169.5 229.539062 169.429688 C 229.164062 169.359375 228.796875 169.253906 228.441406 169.113281 C 228.085938 168.976562 227.746094 168.804688 227.417969 168.601562 C 227.097656 168.402344 226.792969 168.171875 226.511719 167.910156 C 225.957031 167.363281 225.539062 166.726562 225.25 166.003906 C 224.964844 165.28125 224.835938 164.53125 224.859375 163.753906 M 228.613281 163.753906 C 228.578125 164.539062 228.769531 165.265625 229.199219 165.929688 C 229.273438 166.058594 229.367188 166.171875 229.476562 166.273438 C 229.582031 166.378906 229.703125 166.464844 229.832031 166.539062 C 229.960938 166.609375 230.097656 166.667969 230.242188 166.703125 C 230.386719 166.742188 230.535156 166.757812 230.683594 166.757812 C 230.832031 166.757812 230.980469 166.742188 231.121094 166.703125 C 231.265625 166.667969 231.402344 166.609375 231.535156 166.539062 C 231.664062 166.464844 231.78125 166.378906 231.890625 166.273438 C 231.996094 166.171875 232.089844 166.058594 232.167969 165.929688 C 232.589844 165.269531 232.785156 164.546875 232.75 163.761719 C 232.785156 162.980469 232.589844 162.257812 232.167969 161.597656 C 232.089844 161.472656 232 161.355469 231.890625 161.253906 C 231.785156 161.148438 231.664062 161.058594 231.535156 160.988281 C 231.40625 160.910156 231.269531 160.855469 231.121094 160.820312 C 230.980469 160.78125 230.832031 160.761719 230.683594 160.761719 C 230.535156 160.761719 230.386719 160.78125 230.242188 160.820312 C 230.097656 160.855469 229.960938 160.910156 229.828125 160.988281 C 229.699219 161.058594 229.582031 161.148438 229.476562 161.253906 C 229.367188 161.355469 229.273438 161.472656 229.199219 161.597656 C 228.773438 162.261719 228.578125 162.984375 228.613281 163.765625 " fill-opacity="1" fill-rule="nonzero"/><g clip-path="url(#8d357f0884)"><path fill="#e11c6a" d="M 249.300781 169.039062 L 245.628906 169.039062 L 245.628906 162.992188 C 245.660156 162.539062 245.542969 162.125 245.28125 161.75 C 245.164062 161.605469 245.015625 161.496094 244.84375 161.417969 C 244.671875 161.34375 244.492188 161.3125 244.304688 161.320312 C 244.035156 161.316406 243.777344 161.367188 243.53125 161.480469 C 243.285156 161.597656 243.082031 161.761719 242.914062 161.972656 C 242.53125 162.535156 242.359375 163.15625 242.402344 163.835938 L 242.402344 169.035156 L 238.734375 169.035156 L 238.734375 158.488281 L 242.144531 158.488281 L 242.144531 160.257812 C 242.652344 159.621094 243.257812 159.097656 243.957031 158.683594 C 244.558594 158.355469 245.207031 158.195312 245.894531 158.195312 C 246.578125 158.171875 247.214844 158.328125 247.808594 158.675781 C 248.378906 159.066406 248.808594 159.578125 249.089844 160.207031 C 249.539062 159.589844 250.09375 159.085938 250.75 158.695312 C 251.371094 158.355469 252.039062 158.1875 252.746094 158.191406 C 253.234375 158.152344 253.703125 158.21875 254.160156 158.390625 C 254.613281 158.5625 255.007812 158.828125 255.34375 159.179688 C 255.660156 159.621094 255.894531 160.101562 256.046875 160.621094 C 256.195312 161.144531 256.253906 161.675781 256.21875 162.214844 L 256.21875 169.007812 L 252.546875 169.007812 L 252.546875 162.992188 C 252.578125 162.539062 252.460938 162.125 252.199219 161.75 C 252.082031 161.605469 251.9375 161.496094 251.761719 161.417969 C 251.589844 161.34375 251.410156 161.3125 251.222656 161.320312 C 250.953125 161.3125 250.695312 161.367188 250.449219 161.480469 C 250.203125 161.597656 250 161.761719 249.835938 161.972656 C 249.453125 162.539062 249.285156 163.160156 249.328125 163.835938 Z M 249.300781 169.039062 " fill-opacity="1" fill-rule="nonzero"/></g><g clip-path="url(#b5a99364fd)"><path fill="#231f20" d="M 120.449219 176.863281 C 120.460938 177.335938 120.394531 177.796875 120.25 178.25 C 120.105469 178.703125 119.890625 179.117188 119.605469 179.496094 C 119.398438 179.746094 119.152344 179.9375 118.863281 180.074219 C 118.570312 180.207031 118.265625 180.273438 117.945312 180.269531 C 116.757812 180.269531 116.132812 179.230469 116.132812 178 C 116.125 177.527344 116.195312 177.066406 116.34375 176.617188 C 116.492188 176.167969 116.710938 175.753906 117 175.378906 C 117.199219 175.132812 117.445312 174.941406 117.730469 174.800781 C 118.011719 174.664062 118.3125 174.589844 118.632812 174.582031 C 119.867188 174.582031 120.449219 175.601562 120.449219 176.863281 M 117.617188 175.859375 C 117.183594 176.484375 116.972656 177.175781 116.980469 177.9375 C 116.980469 178.769531 117.300781 179.453125 118.078125 179.453125 C 118.449219 179.441406 118.753906 179.289062 118.980469 178.992188 C 119.398438 178.359375 119.605469 177.667969 119.605469 176.910156 C 119.605469 176.171875 119.378906 175.378906 118.535156 175.378906 C 118.152344 175.390625 117.847656 175.546875 117.617188 175.851562 " fill-opacity="1" fill-rule="nonzero"/></g><path fill="#231f20" d="M 122.378906 180.183594 L 122.808594 177.410156 C 122.890625 176.9375 122.941406 176.515625 122.980469 176.179688 L 123.675781 176.179688 L 123.605469 176.871094 C 123.714844 176.632812 123.878906 176.441406 124.09375 176.292969 C 124.308594 176.148438 124.546875 176.070312 124.808594 176.058594 C 125.277344 176.058594 125.660156 176.40625 125.660156 177.152344 C 125.65625 177.386719 125.636719 177.617188 125.597656 177.847656 L 125.222656 180.160156 L 124.460938 180.160156 L 124.820312 177.914062 C 124.847656 177.757812 124.859375 177.605469 124.863281 177.445312 C 124.863281 177.121094 124.757812 176.871094 124.445312 176.871094 C 124.132812 176.871094 123.613281 177.394531 123.46875 178.324219 L 123.175781 180.160156 Z M 122.378906 180.183594 " fill-opacity="1" fill-rule="nonzero"/><path fill="#231f20" d="M 130.421875 179.953125 C 130.054688 180.164062 129.664062 180.265625 129.242188 180.265625 C 128.3125 180.265625 127.855469 179.570312 127.855469 178.625 C 127.855469 177.425781 128.597656 176.113281 129.746094 176.113281 C 129.898438 176.109375 130.039062 176.132812 130.175781 176.191406 C 130.3125 176.246094 130.433594 176.328125 130.535156 176.433594 C 130.636719 176.539062 130.714844 176.660156 130.765625 176.800781 C 130.816406 176.941406 130.835938 177.082031 130.824219 177.230469 C 130.824219 178.257812 129.921875 178.582031 128.628906 178.546875 C 128.617188 178.742188 128.648438 178.929688 128.722656 179.109375 C 128.78125 179.242188 128.875 179.347656 129.003906 179.421875 C 129.128906 179.496094 129.265625 179.53125 129.414062 179.515625 C 129.746094 179.515625 130.054688 179.429688 130.339844 179.253906 Z M 129.65625 176.820312 C 129.160156 176.820312 128.824219 177.355469 128.726562 177.832031 C 129.554688 177.832031 130.113281 177.707031 130.113281 177.238281 C 130.117188 177.179688 130.109375 177.125 130.089844 177.074219 C 130.070312 177.019531 130.039062 176.972656 129.996094 176.933594 C 129.957031 176.894531 129.910156 176.863281 129.859375 176.84375 C 129.804688 176.824219 129.75 176.816406 129.691406 176.820312 " fill-opacity="1" fill-rule="nonzero"/><path fill="#231f20" d="M 138.054688 180.035156 C 137.75 180.183594 137.429688 180.246094 137.089844 180.230469 C 136.25 180.230469 135.699219 179.59375 135.699219 178.644531 C 135.699219 177.257812 136.589844 176.082031 137.832031 176.082031 C 138.074219 176.078125 138.304688 176.128906 138.527344 176.234375 L 138.339844 177.007812 C 138.183594 176.925781 138.015625 176.882812 137.839844 176.882812 C 137.0625 176.882812 136.574219 177.738281 136.574219 178.558594 C 136.574219 179.15625 136.867188 179.488281 137.3125 179.488281 C 137.558594 179.484375 137.789062 179.421875 138.003906 179.300781 Z M 138.054688 180.035156 " fill-opacity="1" fill-rule="nonzero"/><path fill="#231f20" d="M 140.273438 180.175781 L 141.203125 174.375 L 142.003906 174.375 L 141.074219 180.175781 Z M 140.273438 180.175781 " fill-opacity="1" fill-rule="nonzero"/><path fill="#231f20" d="M 143.640625 180.183594 L 144.269531 176.203125 L 145.074219 176.203125 L 144.4375 180.183594 Z M 144.402344 175.125 C 144.394531 175.054688 144.402344 174.984375 144.421875 174.917969 C 144.441406 174.847656 144.472656 174.789062 144.519531 174.734375 C 144.566406 174.675781 144.617188 174.632812 144.683594 174.601562 C 144.742188 174.566406 144.8125 174.546875 144.882812 174.542969 C 144.945312 174.546875 145.003906 174.5625 145.058594 174.589844 C 145.117188 174.621094 145.164062 174.65625 145.203125 174.707031 C 145.242188 174.753906 145.273438 174.808594 145.289062 174.871094 C 145.308594 174.929688 145.3125 174.992188 145.304688 175.054688 C 145.3125 175.125 145.304688 175.195312 145.285156 175.265625 C 145.261719 175.332031 145.230469 175.394531 145.183594 175.449219 C 145.136719 175.503906 145.082031 175.546875 145.015625 175.578125 C 144.953125 175.609375 144.882812 175.625 144.8125 175.628906 C 144.75 175.625 144.691406 175.609375 144.636719 175.582031 C 144.582031 175.550781 144.535156 175.515625 144.496094 175.464844 C 144.457031 175.417969 144.429688 175.363281 144.414062 175.304688 C 144.398438 175.246094 144.394531 175.183594 144.402344 175.125 " fill-opacity="1" fill-rule="nonzero"/><path fill="#231f20" d="M 149.398438 180.035156 C 149.097656 180.195312 148.773438 180.265625 148.433594 180.257812 C 147.59375 180.257812 147.046875 179.621094 147.046875 178.671875 C 147.046875 177.285156 147.933594 176.105469 149.175781 176.105469 C 149.421875 176.105469 149.652344 176.15625 149.871094 176.257812 L 149.664062 177 C 149.507812 176.917969 149.339844 176.875 149.164062 176.875 C 148.386719 176.875 147.902344 177.730469 147.902344 178.554688 C 147.902344 179.148438 148.191406 179.480469 148.636719 179.480469 C 148.882812 179.476562 149.113281 179.414062 149.328125 179.296875 Z M 149.398438 180.035156 " fill-opacity="1" fill-rule="nonzero"/><path fill="#231f20" d="M 151.621094 180.183594 L 152.546875 174.382812 L 153.339844 174.382812 L 152.777344 177.929688 L 153.085938 177.507812 L 154.089844 176.210938 L 155.082031 176.210938 L 153.640625 177.855469 L 154.605469 180.1875 L 153.714844 180.1875 L 153.019531 178.367188 L 152.632812 178.808594 L 152.410156 180.195312 Z M 151.621094 180.183594 " fill-opacity="1" fill-rule="nonzero"/><path fill="#231f20" d="M 161.800781 180.183594 C 161.800781 179.945312 161.800781 179.628906 161.859375 179.28125 C 161.527344 180.015625 161.089844 180.269531 160.667969 180.269531 C 160.070312 180.269531 159.675781 179.71875 159.675781 178.886719 C 159.675781 177.5 160.472656 176.113281 162.035156 176.113281 C 162.382812 176.117188 162.722656 176.179688 163.046875 176.292969 L 162.703125 178.375 C 162.605469 178.972656 162.558594 179.578125 162.5625 180.1875 Z M 162.132812 176.890625 C 162.023438 176.859375 161.914062 176.847656 161.800781 176.847656 C 161.054688 176.847656 160.488281 177.839844 160.488281 178.742188 C 160.488281 179.15625 160.621094 179.503906 160.96875 179.503906 C 161.3125 179.503906 161.792969 178.949219 161.953125 177.9375 Z M 162.132812 176.890625 " fill-opacity="1" fill-rule="nonzero"/><path fill="#231f20" d="M 164.984375 180.183594 L 165.402344 177.457031 C 165.484375 176.988281 165.53125 176.5625 165.574219 176.226562 L 166.269531 176.226562 L 166.199219 176.917969 C 166.308594 176.679688 166.46875 176.488281 166.683594 176.34375 C 166.898438 176.199219 167.140625 176.121094 167.398438 176.105469 C 167.871094 176.105469 168.253906 176.453125 168.253906 177.203125 C 168.25 177.433594 168.226562 177.664062 168.191406 177.894531 L 167.820312 180.207031 L 167.066406 180.207031 L 167.425781 177.964844 C 167.457031 177.796875 167.476562 177.628906 167.484375 177.457031 C 167.484375 177.132812 167.378906 176.882812 167.066406 176.882812 C 166.753906 176.882812 166.234375 177.410156 166.085938 178.335938 L 165.796875 180.175781 Z M 164.984375 180.183594 " fill-opacity="1" fill-rule="nonzero"/><path fill="#231f20" d="M 174.175781 174.375 L 173.484375 178.761719 C 173.40625 179.222656 173.359375 179.683594 173.332031 180.148438 L 172.59375 180.148438 L 172.664062 179.453125 C 172.566406 179.6875 172.414062 179.875 172.207031 180.019531 C 172 180.164062 171.773438 180.242188 171.519531 180.257812 C 170.921875 180.257812 170.5 179.675781 170.5 178.78125 C 170.5 177.394531 171.359375 176.101562 172.582031 176.101562 C 172.761719 176.101562 172.933594 176.136719 173.097656 176.210938 L 173.394531 174.367188 Z M 172.972656 177 C 172.835938 176.898438 172.683594 176.847656 172.511719 176.847656 C 171.820312 176.847656 171.320312 177.757812 171.320312 178.648438 C 171.320312 179.128906 171.476562 179.511719 171.855469 179.511719 C 172.230469 179.511719 172.636719 179.046875 172.777344 178.222656 Z M 172.972656 177 " fill-opacity="1" fill-rule="nonzero"/><path fill="#231f20" d="M 180.445312 175.101562 L 180.269531 176.199219 L 181.027344 176.199219 L 180.902344 176.929688 L 180.152344 176.929688 L 179.882812 178.539062 C 179.851562 178.726562 179.832031 178.914062 179.824219 179.101562 C 179.824219 179.316406 179.910156 179.453125 180.125 179.453125 C 180.21875 179.460938 180.308594 179.460938 180.402344 179.453125 L 180.324219 180.195312 C 180.15625 180.253906 179.984375 180.28125 179.804688 180.277344 C 179.695312 180.285156 179.589844 180.273438 179.484375 180.234375 C 179.382812 180.195312 179.292969 180.136719 179.214844 180.054688 C 179.136719 179.976562 179.082031 179.886719 179.042969 179.78125 C 179.007812 179.679688 178.996094 179.570312 179.007812 179.460938 C 179.011719 179.210938 179.035156 178.964844 179.085938 178.71875 L 179.375 176.945312 L 178.925781 176.945312 L 179.042969 176.210938 L 179.496094 176.210938 L 179.632812 175.351562 Z M 180.445312 175.101562 " fill-opacity="1" fill-rule="nonzero"/><path fill="#231f20" d="M 182.679688 180.183594 L 183.601562 174.382812 L 184.40625 174.382812 L 184.011719 176.765625 C 184.125 176.5625 184.285156 176.402344 184.480469 176.277344 C 184.679688 176.15625 184.894531 176.085938 185.128906 176.074219 C 185.585938 176.074219 185.96875 176.417969 185.96875 177.140625 C 185.964844 177.375 185.945312 177.605469 185.914062 177.832031 L 185.523438 180.183594 L 184.757812 180.183594 L 185.121094 177.953125 C 185.144531 177.777344 185.160156 177.605469 185.164062 177.429688 C 185.164062 177.125 185.046875 176.890625 184.746094 176.890625 C 184.449219 176.890625 183.914062 177.445312 183.78125 178.277344 L 183.441406 180.183594 Z M 182.679688 180.183594 " fill-opacity="1" fill-rule="nonzero"/><path fill="#231f20" d="M 190.742188 179.953125 C 190.375 180.164062 189.984375 180.265625 189.5625 180.265625 C 188.632812 180.265625 188.171875 179.570312 188.171875 178.625 C 188.171875 177.425781 188.917969 176.113281 190.070312 176.113281 C 190.214844 176.109375 190.359375 176.132812 190.5 176.1875 C 190.636719 176.242188 190.757812 176.324219 190.859375 176.429688 C 190.964844 176.535156 191.042969 176.660156 191.09375 176.796875 C 191.140625 176.9375 191.160156 177.082031 191.152344 177.230469 C 191.152344 178.257812 190.25 178.582031 188.960938 178.546875 C 188.945312 178.742188 188.976562 178.925781 189.046875 179.109375 C 189.109375 179.242188 189.203125 179.347656 189.328125 179.421875 C 189.457031 179.496094 189.597656 179.53125 189.742188 179.515625 C 190.078125 179.515625 190.382812 179.429688 190.664062 179.253906 Z M 189.980469 176.820312 C 189.480469 176.820312 189.144531 177.355469 189.046875 177.832031 C 189.875 177.832031 190.402344 177.707031 190.402344 177.238281 C 190.40625 177.179688 190.398438 177.125 190.378906 177.070312 C 190.359375 177.019531 190.328125 176.96875 190.289062 176.929688 C 190.246094 176.890625 190.199219 176.859375 190.144531 176.84375 C 190.089844 176.824219 190.035156 176.816406 189.980469 176.820312 " fill-opacity="1" fill-rule="nonzero"/><path fill="#231f20" d="M 197.019531 176.199219 L 197.082031 178.128906 C 197.082031 178.59375 197.082031 178.914062 197.082031 179.308594 C 197.1875 178.953125 197.328125 178.617188 197.472656 178.1875 L 198.285156 176.191406 L 198.980469 176.191406 L 199.117188 178.136719 C 199.117188 178.589844 199.15625 178.953125 199.117188 179.308594 C 199.222656 178.929688 199.324219 178.566406 199.464844 178.136719 L 200.160156 176.191406 L 200.96875 176.191406 L 199.402344 180.183594 L 198.652344 180.183594 L 198.5 178.449219 C 198.5 178.054688 198.5 177.703125 198.5 177.273438 C 198.332031 177.757812 198.25 178.054688 198.105469 178.410156 L 197.363281 180.183594 L 196.613281 180.183594 L 196.304688 176.203125 Z M 197.019531 176.199219 " fill-opacity="1" fill-rule="nonzero"/><path fill="#231f20" d="M 205.910156 177.761719 C 205.910156 179.113281 205.113281 180.269531 203.976562 180.269531 C 203.128906 180.269531 202.585938 179.578125 202.585938 178.628906 C 202.585938 177.285156 203.378906 176.113281 204.515625 176.113281 C 205.417969 176.113281 205.90625 176.882812 205.90625 177.761719 M 203.425781 178.609375 C 203.425781 179.15625 203.675781 179.535156 204.078125 179.535156 C 204.675781 179.535156 205.078125 178.558594 205.078125 177.761719 C 205.078125 177.355469 204.925781 176.847656 204.441406 176.847656 C 203.800781 176.847656 203.425781 177.859375 203.425781 178.609375 " fill-opacity="1" fill-rule="nonzero"/><path fill="#231f20" d="M 207.914062 180.183594 L 208.304688 177.730469 C 208.394531 177.167969 208.4375 176.558594 208.476562 176.203125 L 209.171875 176.203125 C 209.171875 176.476562 209.128906 176.753906 209.09375 177.042969 C 209.324219 176.503906 209.683594 176.113281 210.148438 176.113281 L 210.324219 176.113281 L 210.164062 177.050781 L 210.011719 177.050781 C 209.441406 177.050781 209.074219 177.742188 208.941406 178.589844 L 208.6875 180.1875 Z M 207.914062 180.183594 " fill-opacity="1" fill-rule="nonzero"/><path fill="#231f20" d="M 211.953125 180.175781 L 212.890625 174.375 L 213.691406 174.375 L 212.757812 180.175781 Z M 211.953125 180.175781 " fill-opacity="1" fill-rule="nonzero"/><path fill="#231f20" d="M 219.082031 174.375 L 218.386719 178.761719 C 218.3125 179.222656 218.261719 179.683594 218.234375 180.148438 L 217.5 180.148438 L 217.566406 179.453125 C 217.46875 179.6875 217.316406 179.875 217.109375 180.019531 C 216.902344 180.164062 216.675781 180.242188 216.421875 180.257812 C 215.828125 180.257812 215.402344 179.675781 215.402344 178.78125 C 215.402344 177.394531 216.261719 176.101562 217.484375 176.101562 C 217.664062 176.101562 217.835938 176.136719 217.996094 176.210938 L 218.296875 174.367188 Z M 217.875 177 C 217.738281 176.898438 217.585938 176.847656 217.414062 176.847656 C 216.71875 176.847656 216.222656 177.757812 216.222656 178.648438 C 216.222656 179.128906 216.382812 179.511719 216.757812 179.511719 C 217.128906 179.511719 217.539062 179.046875 217.679688 178.222656 Z M 217.875 177 " fill-opacity="1" fill-rule="nonzero"/><path fill="#231f20" d="M 223.632812 180.183594 L 224.265625 176.203125 L 225.074219 176.203125 L 224.4375 180.183594 Z M 224.394531 175.125 C 224.390625 175.054688 224.394531 174.984375 224.414062 174.917969 C 224.433594 174.847656 224.46875 174.789062 224.511719 174.734375 C 224.558594 174.675781 224.613281 174.632812 224.675781 174.601562 C 224.738281 174.566406 224.804688 174.546875 224.875 174.542969 C 224.9375 174.546875 224.996094 174.5625 225.050781 174.589844 C 225.109375 174.621094 225.15625 174.65625 225.199219 174.707031 C 225.238281 174.753906 225.265625 174.808594 225.28125 174.871094 C 225.300781 174.929688 225.304688 174.992188 225.296875 175.054688 C 225.304688 175.125 225.296875 175.195312 225.277344 175.265625 C 225.257812 175.332031 225.222656 175.394531 225.175781 175.449219 C 225.128906 175.503906 225.074219 175.546875 225.007812 175.578125 C 224.945312 175.609375 224.875 175.625 224.804688 175.628906 C 224.742188 175.625 224.683594 175.609375 224.628906 175.582031 C 224.574219 175.550781 224.527344 175.515625 224.488281 175.464844 C 224.449219 175.417969 224.425781 175.363281 224.40625 175.304688 C 224.390625 175.246094 224.386719 175.183594 224.394531 175.125 " fill-opacity="1" fill-rule="nonzero"/><path fill="#231f20" d="M 227.082031 179.289062 C 227.324219 179.449219 227.59375 179.539062 227.886719 179.558594 C 227.953125 179.5625 228.019531 179.550781 228.082031 179.527344 C 228.144531 179.503906 228.199219 179.46875 228.246094 179.421875 C 228.296875 179.375 228.335938 179.320312 228.359375 179.261719 C 228.386719 179.199219 228.402344 179.132812 228.402344 179.066406 C 228.402344 178.808594 228.289062 178.65625 227.960938 178.457031 C 227.761719 178.359375 227.597656 178.21875 227.472656 178.03125 C 227.347656 177.847656 227.28125 177.640625 227.269531 177.417969 C 227.261719 177.234375 227.296875 177.058594 227.363281 176.890625 C 227.433594 176.722656 227.535156 176.578125 227.667969 176.449219 C 227.800781 176.328125 227.953125 176.234375 228.125 176.175781 C 228.296875 176.113281 228.476562 176.089844 228.65625 176.105469 C 228.941406 176.101562 229.203125 176.167969 229.445312 176.316406 L 229.238281 177.007812 C 229.050781 176.886719 228.839844 176.828125 228.613281 176.828125 C 228.550781 176.820312 228.484375 176.832031 228.421875 176.851562 C 228.363281 176.871094 228.304688 176.90625 228.257812 176.949219 C 228.210938 176.992188 228.171875 177.046875 228.148438 177.105469 C 228.121094 177.164062 228.109375 177.226562 228.109375 177.292969 C 228.109375 177.515625 228.261719 177.664062 228.539062 177.839844 C 228.742188 177.945312 228.902344 178.089844 229.027344 178.28125 C 229.152344 178.472656 229.21875 178.679688 229.230469 178.90625 C 229.238281 179 229.234375 179.089844 229.222656 179.183594 C 229.207031 179.273438 229.183594 179.363281 229.152344 179.453125 C 229.117188 179.539062 229.078125 179.621094 229.027344 179.699219 C 228.976562 179.777344 228.917969 179.847656 228.851562 179.914062 C 228.785156 179.980469 228.714844 180.035156 228.636719 180.089844 C 228.558594 180.136719 228.476562 180.179688 228.390625 180.210938 C 228.304688 180.246094 228.214844 180.265625 228.121094 180.28125 C 228.03125 180.296875 227.9375 180.300781 227.84375 180.292969 C 227.5 180.304688 227.1875 180.207031 226.90625 180.007812 Z M 227.082031 179.289062 " fill-opacity="1" fill-rule="nonzero"/><g clip-path="url(#f674aa9ded)"><path fill="#231f20" d="M 235.3125 176.199219 L 235.574219 178.117188 C 235.636719 178.539062 235.679688 178.808594 235.707031 179.109375 C 235.789062 178.863281 235.875 178.59375 236.035156 178.160156 L 236.726562 176.199219 L 237.574219 176.199219 L 236.351562 179.128906 C 236.058594 179.921875 235.652344 180.652344 235.128906 181.316406 C 234.859375 181.652344 234.511719 181.882812 234.097656 182.011719 L 233.910156 181.191406 C 234.125 181.113281 234.324219 180.996094 234.5 180.847656 C 234.75 180.625 234.945312 180.359375 235.089844 180.054688 C 235.109375 179.996094 235.109375 179.933594 235.089844 179.871094 L 234.394531 176.203125 Z M 235.3125 176.199219 " fill-opacity="1" fill-rule="nonzero"/></g><path fill="#231f20" d="M 242.527344 177.761719 C 242.527344 179.113281 241.730469 180.269531 240.589844 180.269531 C 239.746094 180.269531 239.203125 179.578125 239.203125 178.628906 C 239.203125 177.285156 239.996094 176.113281 241.132812 176.113281 C 242.035156 176.113281 242.519531 176.882812 242.519531 177.761719 M 240.035156 178.609375 C 240.035156 179.15625 240.285156 179.535156 240.6875 179.535156 C 241.285156 179.535156 241.6875 178.558594 241.6875 177.761719 C 241.6875 177.355469 241.535156 176.847656 241.050781 176.847656 C 240.410156 176.847656 240.035156 177.859375 240.035156 178.609375 " fill-opacity="1" fill-rule="nonzero"/><path fill="#231f20" d="M 247.972656 176.199219 L 247.539062 178.96875 C 247.460938 179.441406 247.414062 179.855469 247.371094 180.203125 L 246.675781 180.203125 L 246.746094 179.511719 C 246.632812 179.730469 246.476562 179.910156 246.269531 180.050781 C 246.0625 180.1875 245.835938 180.269531 245.589844 180.292969 C 245.101562 180.292969 244.710938 179.980469 244.710938 179.164062 C 244.714844 178.929688 244.738281 178.699219 244.785156 178.472656 L 245.136719 176.238281 L 245.894531 176.238281 L 245.546875 178.410156 C 245.511719 178.589844 245.496094 178.769531 245.492188 178.953125 C 245.492188 179.28125 245.601562 179.515625 245.914062 179.515625 C 246.226562 179.515625 246.71875 178.992188 246.851562 178.164062 L 247.15625 176.234375 Z M 247.972656 176.199219 " fill-opacity="1" fill-rule="nonzero"/><path fill="#231f20" d="M 249.933594 180.183594 L 250.320312 177.730469 C 250.410156 177.167969 250.453125 176.558594 250.492188 176.203125 L 251.1875 176.203125 C 251.1875 176.476562 251.148438 176.753906 251.109375 177.042969 C 251.339844 176.503906 251.703125 176.113281 252.160156 176.113281 L 252.332031 176.113281 L 252.171875 177.050781 L 252.019531 177.050781 C 251.453125 177.050781 251.082031 177.742188 250.953125 178.589844 L 250.75 180.183594 Z M 249.933594 180.183594 " fill-opacity="1" fill-rule="nonzero"/><g clip-path="url(#7b5bf7f16b)"><path fill="#231f20" d="M 254.054688 179.289062 C 254.296875 179.453125 254.566406 179.539062 254.859375 179.558594 C 254.925781 179.5625 254.988281 179.550781 255.054688 179.527344 C 255.117188 179.503906 255.171875 179.46875 255.21875 179.421875 C 255.269531 179.375 255.304688 179.320312 255.332031 179.261719 C 255.359375 179.199219 255.371094 179.132812 255.371094 179.066406 C 255.371094 178.808594 255.261719 178.65625 254.933594 178.457031 C 254.738281 178.355469 254.582031 178.210938 254.464844 178.027344 C 254.347656 177.839844 254.285156 177.636719 254.273438 177.417969 C 254.269531 177.234375 254.300781 177.058594 254.371094 176.890625 C 254.441406 176.722656 254.542969 176.578125 254.675781 176.449219 C 254.808594 176.328125 254.960938 176.234375 255.132812 176.175781 C 255.304688 176.113281 255.480469 176.089844 255.664062 176.105469 C 255.945312 176.101562 256.210938 176.167969 256.453125 176.316406 L 256.246094 177.007812 C 256.054688 176.886719 255.847656 176.828125 255.621094 176.828125 C 255.558594 176.820312 255.492188 176.832031 255.429688 176.851562 C 255.367188 176.871094 255.3125 176.90625 255.265625 176.949219 C 255.214844 176.992188 255.179688 177.046875 255.15625 177.105469 C 255.128906 177.164062 255.117188 177.226562 255.117188 177.292969 C 255.117188 177.515625 255.269531 177.664062 255.542969 177.839844 C 255.746094 177.945312 255.910156 178.089844 256.035156 178.28125 C 256.160156 178.472656 256.226562 178.679688 256.238281 178.90625 C 256.246094 179 256.238281 179.09375 256.226562 179.1875 C 256.210938 179.28125 256.1875 179.371094 256.15625 179.457031 C 256.121094 179.546875 256.078125 179.628906 256.023438 179.707031 C 255.972656 179.785156 255.914062 179.859375 255.847656 179.925781 C 255.777344 179.992188 255.703125 180.050781 255.625 180.097656 C 255.542969 180.148438 255.460938 180.1875 255.371094 180.222656 C 255.28125 180.253906 255.191406 180.273438 255.097656 180.285156 C 255.003906 180.300781 254.910156 180.300781 254.816406 180.292969 C 254.472656 180.304688 254.160156 180.207031 253.878906 180.007812 Z M 254.054688 179.289062 " fill-opacity="1" fill-rule="nonzero"/></g></svg>