<svg xmlns="http://www.w3.org/2000/svg" xmlns:xlink="http://www.w3.org/1999/xlink" width="500" zoomAndPan="magnify" viewBox="0 0 375 374.999991" height="500" preserveAspectRatio="xMidYMid meet" version="1.0"><defs><clipPath id="673a0043c2"><path d="M 32.847656 154.039062 L 51 154.039062 L 51 193 L 32.847656 193 Z M 32.847656 154.039062 " clip-rule="nonzero"/></clipPath><clipPath id="61fa33490b"><path d="M 53 154.039062 L 62 154.039062 L 62 193 L 53 193 Z M 53 154.039062 " clip-rule="nonzero"/></clipPath><clipPath id="61872a0bd8"><path d="M 120 154.039062 L 146 154.039062 L 146 194 L 120 194 Z M 120 154.039062 " clip-rule="nonzero"/></clipPath><clipPath id="51af624e3e"><path d="M 176 154.039062 L 201 154.039062 L 201 194 L 176 194 Z M 176 154.039062 " clip-rule="nonzero"/></clipPath><clipPath id="d84a4144af"><path d="M 302 168 L 341.847656 168 L 341.847656 193 L 302 193 Z M 302 168 " clip-rule="nonzero"/></clipPath><clipPath id="6a69637470"><path d="M 32.847656 204 L 43 204 L 43 217 L 32.847656 217 Z M 32.847656 204 " clip-rule="nonzero"/></clipPath><clipPath id="febae05d14"><path d="M 292 207 L 301 207 L 301 220.789062 L 292 220.789062 Z M 292 207 " clip-rule="nonzero"/></clipPath><clipPath id="bf3dd952a0"><path d="M 336 207 L 341.847656 207 L 341.847656 217 L 336 217 Z M 336 207 " clip-rule="nonzero"/></clipPath></defs><g clip-path="url(#673a0043c2)"><path fill="#2b509b" d="M 50.058594 168.847656 L 50.058594 174.953125 L 44.496094 174.953125 L 44.496094 192.089844 L 36.226562 192.089844 L 36.226562 174.953125 L 32.847656 174.953125 L 32.847656 168.847656 L 36.226562 168.847656 L 36.226562 166.773438 C 36.164062 164.207031 36.613281 161.734375 37.570312 159.355469 C 37.890625 158.464844 38.367188 157.667969 39 156.960938 C 39.628906 156.257812 40.371094 155.695312 41.222656 155.28125 L 50.394531 154.167969 L 50.394531 156.699219 C 49.503906 156.882812 48.679688 157.21875 47.914062 157.707031 C 47.148438 158.199219 46.5 158.808594 45.960938 159.539062 C 44.855469 161.28125 44.347656 163.183594 44.433594 165.246094 L 44.433594 168.847656 Z M 50.058594 168.847656 " fill-opacity="1" fill-rule="nonzero"/></g><g clip-path="url(#61fa33490b)"><path fill="#2b509b" d="M 61.523438 192.078125 L 53.328125 192.078125 L 53.328125 155.28125 L 61.523438 154.167969 Z M 61.523438 192.078125 " fill-opacity="1" fill-rule="nonzero"/></g><path fill="#2b509b" d="M 72.816406 192.089844 L 64.441406 168.847656 L 73.167969 168.847656 L 76.914062 180.84375 L 81.5 168.847656 L 88.683594 168.847656 L 74.117188 203.324219 L 65.402344 203.324219 C 66.753906 202.042969 67.964844 200.644531 69.042969 199.128906 C 70.15625 197.554688 71.117188 195.890625 71.914062 194.136719 Z M 72.816406 192.089844 " fill-opacity="1" fill-rule="nonzero"/><path fill="#2b509b" d="M 99.472656 192.089844 L 91.386719 192.089844 L 91.386719 168.847656 L 98.847656 168.847656 L 98.847656 172.742188 C 99.933594 171.335938 101.253906 170.195312 102.804688 169.320312 C 104.238281 168.558594 105.765625 168.1875 107.390625 168.207031 C 108.433594 168.132812 109.445312 168.28125 110.425781 168.648438 C 111.40625 169.015625 112.261719 169.570312 113 170.3125 C 113.691406 171.191406 114.203125 172.164062 114.535156 173.234375 C 114.863281 174.300781 114.988281 175.394531 114.910156 176.511719 L 114.910156 192.089844 L 106.839844 192.089844 L 106.839844 178.769531 C 106.914062 177.761719 106.664062 176.839844 106.089844 176.007812 C 105.816406 175.6875 105.480469 175.445312 105.09375 175.28125 C 104.703125 175.117188 104.296875 175.046875 103.875 175.074219 C 103.25 175.039062 102.648438 175.148438 102.078125 175.398438 C 101.503906 175.648438 101.015625 176.011719 100.617188 176.496094 C 99.761719 177.738281 99.386719 179.109375 99.488281 180.617188 Z M 99.472656 192.089844 " fill-opacity="1" fill-rule="nonzero"/><g clip-path="url(#61872a0bd8)"><path fill="#2b509b" d="M 120.703125 193.191406 L 120.703125 155.28125 L 128.789062 154.167969 L 128.789062 169.855469 C 129.765625 169.347656 130.785156 168.945312 131.84375 168.652344 C 132.753906 168.390625 133.679688 168.257812 134.625 168.253906 C 136.089844 168.214844 137.488281 168.488281 138.828125 169.078125 C 140.167969 169.671875 141.3125 170.519531 142.269531 171.625 C 143.289062 172.855469 144.050781 174.226562 144.5625 175.738281 C 145.070312 177.253906 145.289062 178.808594 145.21875 180.402344 C 145.242188 180.824219 145.246094 181.246094 145.230469 181.671875 C 145.210938 182.09375 145.167969 182.515625 145.105469 182.933594 C 145.042969 183.355469 144.957031 183.769531 144.851562 184.179688 C 144.742188 184.589844 144.613281 184.992188 144.464844 185.386719 C 144.3125 185.785156 144.144531 186.171875 143.953125 186.550781 C 143.761719 186.929688 143.550781 187.296875 143.320312 187.652344 C 143.089844 188.007812 142.84375 188.351562 142.578125 188.683594 C 142.3125 189.011719 142.027344 189.328125 141.726562 189.628906 C 141.429688 189.925781 141.113281 190.210938 140.785156 190.476562 C 140.457031 190.746094 140.113281 190.992188 139.757812 191.222656 C 139.402344 191.457031 139.035156 191.667969 138.65625 191.859375 C 138.277344 192.050781 137.890625 192.222656 137.492188 192.375 C 137.097656 192.523438 136.691406 192.65625 136.28125 192.761719 C 135.871094 192.871094 135.457031 192.957031 135.039062 193.023438 C 134.617188 193.089844 134.195312 193.128906 133.773438 193.152344 C 133.347656 193.171875 132.925781 193.167969 132.5 193.144531 C 132.027344 193.144531 131.476562 193.144531 130.882812 193.054688 C 130.285156 192.960938 129.597656 192.902344 128.832031 192.777344 L 125.882812 192.078125 Z M 128.789062 186.734375 C 129.367188 186.886719 129.878906 187 130.316406 187.070312 C 130.679688 187.136719 131.046875 187.171875 131.417969 187.175781 C 132.195312 187.183594 132.933594 187.015625 133.632812 186.675781 C 134.332031 186.332031 134.917969 185.855469 135.390625 185.238281 C 136.5 183.792969 137.011719 182.160156 136.917969 180.339844 C 136.996094 178.742188 136.554688 177.300781 135.589844 176.023438 C 135.183594 175.5 134.679688 175.09375 134.085938 174.808594 C 133.488281 174.519531 132.859375 174.382812 132.195312 174.390625 C 131.699219 174.40625 131.222656 174.5 130.757812 174.679688 C 130.082031 174.929688 129.429688 175.234375 128.804688 175.59375 Z M 128.789062 186.734375 " fill-opacity="1" fill-rule="nonzero"/></g><path fill="#2b509b" d="M 171.78125 183.773438 L 170.878906 190.917969 C 169.382812 191.644531 167.824219 192.203125 166.203125 192.59375 C 164.695312 192.953125 163.167969 193.136719 161.617188 193.144531 C 159.898438 193.222656 158.226562 192.972656 156.605469 192.394531 C 154.984375 191.8125 153.53125 190.949219 152.25 189.800781 C 151.054688 188.675781 150.148438 187.355469 149.527344 185.835938 C 148.90625 184.320312 148.625 182.742188 148.6875 181.105469 C 148.652344 179.328125 148.972656 177.617188 149.652344 175.976562 C 150.328125 174.332031 151.304688 172.894531 152.585938 171.65625 C 153.832031 170.390625 155.28125 169.425781 156.925781 168.753906 C 158.570312 168.082031 160.285156 167.765625 162.0625 167.796875 C 163.503906 167.738281 164.902344 167.957031 166.257812 168.445312 C 167.613281 168.933594 168.828125 169.65625 169.902344 170.621094 C 170.917969 171.558594 171.695312 172.664062 172.230469 173.941406 C 172.761719 175.21875 173.007812 176.546875 172.957031 177.929688 C 172.957031 178.386719 172.957031 179.136719 172.851562 180.140625 L 172.851562 180.292969 L 172.132812 181.347656 L 156.253906 181.789062 C 156.289062 182.53125 156.476562 183.234375 156.8125 183.894531 C 157.148438 184.558594 157.601562 185.121094 158.179688 185.589844 C 159.488281 186.648438 160.988281 187.160156 162.671875 187.117188 C 164.121094 187.050781 165.515625 186.75 166.859375 186.214844 C 168.589844 185.585938 170.230469 184.769531 171.78125 183.773438 M 156.328125 178.28125 L 166.433594 177.976562 L 166.433594 177.609375 C 166.457031 177.03125 166.355469 176.472656 166.132812 175.941406 C 165.90625 175.40625 165.578125 174.945312 165.148438 174.554688 C 164.222656 173.722656 163.136719 173.332031 161.894531 173.382812 C 160.503906 173.335938 159.28125 173.765625 158.226562 174.664062 C 157.167969 175.628906 156.539062 176.816406 156.34375 178.234375 " fill-opacity="1" fill-rule="nonzero"/><g clip-path="url(#51af624e3e)"><path fill="#2b509b" d="M 200.609375 154.167969 L 200.609375 192.089844 L 193.5 193.207031 L 193.195312 191.40625 C 192.128906 192 191.007812 192.457031 189.832031 192.777344 C 188.730469 193.070312 187.609375 193.21875 186.46875 193.222656 C 185.015625 193.300781 183.617188 193.058594 182.277344 192.492188 C 180.933594 191.929688 179.785156 191.097656 178.828125 190 C 177.851562 188.726562 177.125 187.320312 176.65625 185.78125 C 176.183594 184.246094 175.996094 182.675781 176.09375 181.074219 C 176.003906 179.328125 176.238281 177.628906 176.792969 175.972656 C 177.34375 174.316406 178.183594 172.816406 179.300781 171.472656 C 180.386719 170.269531 181.675781 169.355469 183.171875 168.730469 C 184.667969 168.105469 186.226562 167.828125 187.84375 167.902344 C 189.449219 167.902344 190.976562 168.238281 192.429688 168.910156 L 192.429688 155.28125 Z M 192.492188 174.753906 C 192.058594 174.5 191.601562 174.300781 191.117188 174.160156 C 190.691406 174.039062 190.257812 173.980469 189.816406 173.976562 C 189.054688 173.972656 188.332031 174.140625 187.648438 174.480469 C 186.964844 174.816406 186.394531 175.289062 185.933594 175.898438 C 184.835938 177.324219 184.324219 178.9375 184.40625 180.738281 C 184.335938 182.421875 184.796875 183.949219 185.78125 185.316406 C 186.160156 185.878906 186.648438 186.320312 187.246094 186.640625 C 187.84375 186.960938 188.480469 187.125 189.160156 187.132812 C 189.71875 187.125 190.261719 187.019531 190.78125 186.8125 C 191.414062 186.558594 192.003906 186.226562 192.554688 185.820312 Z M 192.492188 174.753906 " fill-opacity="1" fill-rule="nonzero"/></g><path fill="#2b509b" d="M 206.707031 191.023438 L 206.707031 184.691406 C 208.226562 185.707031 209.820312 186.585938 211.488281 187.332031 C 212.496094 187.761719 213.546875 187.988281 214.640625 188.015625 C 215.375 188.054688 216.054688 187.871094 216.671875 187.46875 C 216.890625 187.316406 217.066406 187.125 217.203125 186.894531 C 217.335938 186.664062 217.414062 186.414062 217.433594 186.148438 C 217.457031 185.882812 217.421875 185.625 217.328125 185.375 C 217.234375 185.125 217.09375 184.90625 216.902344 184.71875 C 216.34375 184.273438 215.722656 183.945312 215.035156 183.742188 L 211.980469 182.691406 C 210.226562 182.167969 208.738281 181.226562 207.515625 179.867188 C 206.46875 178.628906 205.960938 177.199219 205.988281 175.578125 C 205.945312 174.503906 206.140625 173.472656 206.570312 172.484375 C 206.996094 171.5 207.621094 170.652344 208.433594 169.949219 C 209.355469 169.203125 210.378906 168.648438 211.507812 168.28125 C 212.636719 167.917969 213.789062 167.765625 214.976562 167.828125 C 216.328125 167.839844 217.65625 168.019531 218.964844 168.359375 C 220.570312 168.78125 222.136719 169.328125 223.65625 169.992188 L 222.648438 175.640625 C 221.652344 174.746094 220.542969 174.027344 219.316406 173.488281 C 218.21875 173.015625 217.070312 172.765625 215.875 172.742188 C 215.167969 172.707031 214.519531 172.890625 213.9375 173.289062 C 213.433594 173.625 213.183594 174.09375 213.1875 174.695312 C 213.164062 175.136719 213.304688 175.519531 213.613281 175.839844 C 214.183594 176.269531 214.816406 176.574219 215.511719 176.753906 L 218.308594 177.761719 C 220.113281 178.289062 221.679688 179.226562 223 180.570312 C 224.007812 181.828125 224.476562 183.261719 224.40625 184.875 C 224.46875 186.03125 224.277344 187.144531 223.832031 188.214844 C 223.386719 189.285156 222.734375 190.207031 221.867188 190.976562 C 220.898438 191.761719 219.816406 192.347656 218.628906 192.734375 C 217.441406 193.117188 216.222656 193.273438 214.976562 193.207031 C 213.5625 193.203125 212.171875 193.027344 210.800781 192.671875 C 209.359375 192.292969 207.984375 191.75 206.675781 191.039062 " fill-opacity="1" fill-rule="nonzero"/><path fill="#979797" d="M 230.105469 187.46875 C 230.085938 186.75 230.210938 186.0625 230.476562 185.394531 C 230.742188 184.730469 231.128906 184.144531 231.632812 183.636719 C 232.132812 183.132812 232.710938 182.746094 233.371094 182.480469 C 234.03125 182.214844 234.714844 182.09375 235.425781 182.109375 C 236.148438 182.09375 236.847656 182.214844 237.519531 182.480469 C 238.195312 182.746094 238.789062 183.128906 239.308594 183.636719 C 239.558594 183.886719 239.78125 184.160156 239.976562 184.453125 C 240.175781 184.75 240.339844 185.0625 240.476562 185.386719 C 240.613281 185.714844 240.714844 186.050781 240.785156 186.398438 C 240.851562 186.746094 240.886719 187.097656 240.886719 187.453125 C 240.886719 187.804688 240.851562 188.15625 240.785156 188.503906 C 240.714844 188.851562 240.613281 189.1875 240.476562 189.515625 C 240.339844 189.84375 240.175781 190.15625 239.976562 190.449219 C 239.78125 190.742188 239.558594 191.015625 239.308594 191.265625 C 238.792969 191.773438 238.203125 192.160156 237.53125 192.425781 C 236.859375 192.691406 236.160156 192.8125 235.441406 192.792969 C 234.726562 192.796875 234.042969 192.660156 233.390625 192.378906 C 232.734375 192.097656 232.167969 191.695312 231.679688 191.175781 C 231.179688 190.675781 230.796875 190.09375 230.53125 189.4375 C 230.265625 188.78125 230.140625 188.097656 230.152344 187.390625 " fill-opacity="1" fill-rule="nonzero"/><path fill="#e11c6a" d="M 268.394531 190.792969 C 267.058594 191.558594 265.652344 192.15625 264.175781 192.578125 C 262.773438 192.96875 261.347656 193.164062 259.894531 193.160156 C 258.140625 193.226562 256.433594 192.957031 254.785156 192.355469 C 253.132812 191.753906 251.65625 190.863281 250.359375 189.679688 C 249.125 188.546875 248.1875 187.214844 247.535156 185.675781 C 246.882812 184.132812 246.582031 182.53125 246.628906 180.859375 C 246.59375 179.09375 246.925781 177.398438 247.628906 175.777344 C 248.328125 174.15625 249.335938 172.75 250.648438 171.566406 C 252.015625 170.300781 253.574219 169.34375 255.320312 168.695312 C 257.066406 168.046875 258.871094 167.75 260.734375 167.8125 C 262.203125 167.808594 263.648438 167.976562 265.078125 168.316406 C 266.5 168.660156 267.859375 169.167969 269.15625 169.839844 L 268.226562 177.058594 C 267.0625 176.335938 265.832031 175.746094 264.542969 175.289062 C 263.480469 174.902344 262.382812 174.699219 261.253906 174.679688 C 260.410156 174.644531 259.59375 174.773438 258.800781 175.0625 C 258.007812 175.351562 257.296875 175.777344 256.671875 176.34375 C 256.082031 176.867188 255.628906 177.488281 255.3125 178.210938 C 255 178.933594 254.851562 179.691406 254.867188 180.476562 C 254.832031 181.269531 254.960938 182.035156 255.253906 182.769531 C 255.546875 183.507812 255.980469 184.152344 256.546875 184.707031 C 257.152344 185.242188 257.839844 185.640625 258.605469 185.90625 C 259.371094 186.171875 260.15625 186.277344 260.964844 186.230469 C 262.222656 186.210938 263.433594 185.964844 264.601562 185.5 C 266.195312 184.875 267.710938 184.097656 269.140625 183.164062 Z M 268.394531 190.792969 " fill-opacity="1" fill-rule="nonzero"/><path fill="#e11c6a" d="M 272.351562 180.449219 C 272.289062 178.734375 272.574219 177.085938 273.207031 175.492188 C 273.835938 173.898438 274.757812 172.5 275.972656 171.289062 C 276.59375 170.722656 277.261719 170.21875 277.976562 169.777344 C 278.691406 169.332031 279.441406 168.957031 280.226562 168.65625 C 281.011719 168.351562 281.816406 168.121094 282.640625 167.964844 C 283.46875 167.8125 284.304688 167.734375 285.144531 167.734375 C 285.984375 167.734375 286.820312 167.8125 287.648438 167.964844 C 288.472656 168.121094 289.277344 168.351562 290.0625 168.65625 C 290.847656 168.957031 291.597656 169.332031 292.3125 169.777344 C 293.027344 170.21875 293.695312 170.722656 294.316406 171.289062 C 295.539062 172.492188 296.464844 173.894531 297.101562 175.488281 C 297.734375 177.082031 298.015625 178.734375 297.953125 180.449219 C 298.011719 182.160156 297.722656 183.8125 297.089844 185.40625 C 296.457031 186.996094 295.53125 188.398438 294.316406 189.605469 C 293.695312 190.175781 293.03125 190.683594 292.316406 191.128906 C 291.601562 191.574219 290.851562 191.949219 290.066406 192.253906 C 289.28125 192.5625 288.476562 192.792969 287.648438 192.949219 C 286.820312 193.105469 285.988281 193.183594 285.144531 193.183594 C 284.300781 193.183594 283.46875 193.105469 282.640625 192.949219 C 281.8125 192.792969 281.007812 192.5625 280.222656 192.253906 C 279.4375 191.949219 278.6875 191.574219 277.972656 191.128906 C 277.261719 190.683594 276.59375 190.175781 275.972656 189.605469 C 274.753906 188.398438 273.828125 186.996094 273.195312 185.40625 C 272.5625 183.8125 272.277344 182.160156 272.335938 180.449219 M 280.605469 180.449219 C 280.523438 182.179688 280.949219 183.777344 281.890625 185.238281 C 282.058594 185.519531 282.265625 185.773438 282.5 186 C 282.738281 186.226562 283 186.417969 283.285156 186.578125 C 283.570312 186.738281 283.875 186.863281 284.191406 186.945312 C 284.507812 187.027344 284.832031 187.066406 285.160156 187.066406 C 285.488281 187.066406 285.8125 187.027344 286.128906 186.945312 C 286.445312 186.863281 286.746094 186.738281 287.035156 186.578125 C 287.320312 186.417969 287.582031 186.226562 287.820312 186 C 288.054688 185.773438 288.257812 185.519531 288.429688 185.238281 C 289.363281 183.78125 289.792969 182.191406 289.714844 180.460938 C 289.789062 178.742188 289.359375 177.152344 288.429688 175.699219 C 288.261719 175.421875 288.058594 175.164062 287.820312 174.9375 C 287.585938 174.707031 287.324219 174.511719 287.039062 174.351562 C 286.75 174.1875 286.449219 174.066406 286.128906 173.984375 C 285.8125 173.898438 285.488281 173.859375 285.160156 173.859375 C 284.832031 173.859375 284.507812 173.898438 284.1875 173.984375 C 283.871094 174.066406 283.570312 174.1875 283.28125 174.351562 C 282.996094 174.511719 282.734375 174.707031 282.5 174.9375 C 282.261719 175.164062 282.058594 175.421875 281.890625 175.699219 C 280.953125 177.15625 280.527344 178.75 280.605469 180.476562 " fill-opacity="1" fill-rule="nonzero"/><g clip-path="url(#d84a4144af)"><path fill="#e11c6a" d="M 326.167969 192.089844 L 318.082031 192.089844 L 318.082031 178.769531 C 318.148438 177.769531 317.890625 176.859375 317.316406 176.035156 C 317.054688 175.714844 316.734375 175.472656 316.355469 175.304688 C 315.972656 175.140625 315.578125 175.066406 315.164062 175.089844 C 314.566406 175.074219 314 175.191406 313.460938 175.441406 C 312.921875 175.695312 312.472656 176.054688 312.105469 176.523438 C 311.257812 177.765625 310.882812 179.132812 310.976562 180.628906 L 310.976562 192.078125 L 302.890625 192.078125 L 302.890625 168.847656 L 310.410156 168.847656 L 310.410156 172.742188 C 311.527344 171.34375 312.859375 170.1875 314.398438 169.277344 C 315.726562 168.554688 317.148438 168.199219 318.664062 168.207031 C 320.171875 168.148438 321.578125 168.5 322.882812 169.261719 C 324.136719 170.121094 325.082031 171.246094 325.707031 172.632812 C 326.695312 171.273438 327.914062 170.164062 329.363281 169.308594 C 330.730469 168.554688 332.199219 168.183594 333.761719 168.191406 C 334.832031 168.105469 335.867188 168.253906 336.871094 168.636719 C 337.871094 169.015625 338.742188 169.597656 339.480469 170.375 C 340.179688 171.34375 340.695312 172.402344 341.027344 173.550781 C 341.355469 174.699219 341.484375 175.867188 341.40625 177.058594 L 341.40625 192.015625 L 333.320312 192.015625 L 333.320312 178.769531 C 333.386719 177.769531 333.128906 176.859375 332.554688 176.035156 C 332.292969 175.714844 331.972656 175.472656 331.59375 175.304688 C 331.210938 175.140625 330.816406 175.066406 330.402344 175.089844 C 329.804688 175.070312 329.238281 175.1875 328.699219 175.441406 C 328.160156 175.695312 327.710938 176.054688 327.34375 176.523438 C 326.507812 177.769531 326.136719 179.136719 326.226562 180.628906 Z M 326.167969 192.089844 " fill-opacity="1" fill-rule="nonzero"/></g><g clip-path="url(#6a69637470)"><path fill="#231f20" d="M 42.355469 209.320312 C 42.382812 210.367188 42.234375 211.382812 41.914062 212.378906 C 41.59375 213.371094 41.121094 214.285156 40.492188 215.121094 C 40.042969 215.667969 39.5 216.089844 38.859375 216.390625 C 38.21875 216.6875 37.542969 216.835938 36.839844 216.828125 C 34.222656 216.828125 32.847656 214.539062 32.847656 211.824219 C 32.828125 210.78125 32.984375 209.765625 33.3125 208.777344 C 33.636719 207.789062 34.121094 206.878906 34.757812 206.054688 C 35.199219 205.511719 35.734375 205.089844 36.363281 204.78125 C 36.988281 204.476562 37.652344 204.316406 38.351562 204.300781 C 41.070312 204.300781 42.355469 206.542969 42.355469 209.320312 M 36.121094 207.109375 C 35.164062 208.484375 34.695312 210.011719 34.714844 211.6875 C 34.714844 213.519531 35.417969 215.027344 37.128906 215.027344 C 37.953125 215.003906 38.617188 214.664062 39.117188 214.007812 C 40.042969 212.621094 40.5 211.09375 40.492188 209.429688 C 40.492188 207.796875 40 206.054688 38.136719 206.054688 C 37.296875 206.078125 36.625 206.421875 36.121094 207.09375 " fill-opacity="1" fill-rule="nonzero"/></g><path fill="#231f20" d="M 46.605469 216.632812 L 47.550781 210.527344 C 47.734375 209.488281 47.84375 208.558594 47.933594 207.8125 L 49.460938 207.8125 L 49.308594 209.335938 C 49.546875 208.816406 49.90625 208.394531 50.378906 208.070312 C 50.855469 207.75 51.378906 207.578125 51.953125 207.550781 C 52.992188 207.550781 53.835938 208.3125 53.835938 209.960938 C 53.828125 210.476562 53.78125 210.984375 53.695312 211.488281 L 52.871094 216.585938 L 51.191406 216.585938 L 51.984375 211.640625 C 52.039062 211.296875 52.070312 210.953125 52.078125 210.601562 C 52.078125 209.886719 51.847656 209.335938 51.160156 209.335938 C 50.472656 209.335938 49.324219 210.496094 49.003906 212.542969 L 48.363281 216.585938 Z M 46.605469 216.632812 " fill-opacity="1" fill-rule="nonzero"/><path fill="#231f20" d="M 64.320312 216.128906 C 63.515625 216.589844 62.648438 216.820312 61.71875 216.816406 C 59.671875 216.816406 58.664062 215.289062 58.664062 213.199219 C 58.664062 210.558594 60.300781 207.671875 62.835938 207.671875 C 63.164062 207.660156 63.476562 207.714844 63.777344 207.839844 C 64.082031 207.960938 64.34375 208.140625 64.570312 208.375 C 64.796875 208.609375 64.964844 208.878906 65.074219 209.183594 C 65.1875 209.492188 65.230469 209.804688 65.207031 210.128906 C 65.207031 212.390625 63.21875 213.105469 60.375 213.03125 C 60.347656 213.457031 60.414062 213.871094 60.574219 214.265625 C 60.707031 214.5625 60.914062 214.796875 61.195312 214.960938 C 61.476562 215.125 61.777344 215.195312 62.101562 215.167969 C 62.835938 215.167969 63.515625 214.976562 64.136719 214.585938 Z M 62.636719 209.230469 C 61.539062 209.230469 60.804688 210.40625 60.589844 211.457031 C 62.410156 211.457031 63.644531 211.183594 63.644531 210.144531 C 63.652344 210.019531 63.632812 209.898438 63.589844 209.785156 C 63.542969 209.667969 63.476562 209.566406 63.386719 209.476562 C 63.296875 209.390625 63.195312 209.324219 63.078125 209.28125 C 62.960938 209.238281 62.839844 209.222656 62.714844 209.230469 " fill-opacity="1" fill-rule="nonzero"/><path fill="#231f20" d="M 81.132812 216.3125 C 80.460938 216.636719 79.753906 216.777344 79.007812 216.738281 C 77.15625 216.738281 75.949219 215.335938 75.949219 213.242188 C 75.949219 210.191406 77.90625 207.597656 80.640625 207.597656 C 81.175781 207.589844 81.6875 207.703125 82.171875 207.933594 L 81.757812 209.640625 C 81.414062 209.457031 81.046875 209.363281 80.65625 209.367188 C 78.945312 209.367188 77.875 211.246094 77.875 213.058594 C 77.875 214.371094 78.519531 215.105469 79.496094 215.105469 C 80.039062 215.09375 80.550781 214.957031 81.023438 214.695312 Z M 81.132812 216.3125 " fill-opacity="1" fill-rule="nonzero"/><path fill="#231f20" d="M 86.023438 216.617188 L 88.070312 203.84375 L 89.828125 203.84375 L 87.78125 216.617188 Z M 86.023438 216.617188 " fill-opacity="1" fill-rule="nonzero"/><path fill="#231f20" d="M 93.433594 216.632812 L 94.824219 207.871094 L 96.597656 207.871094 L 95.191406 216.632812 Z M 95.117188 205.492188 C 95.097656 205.335938 95.113281 205.183594 95.15625 205.035156 C 95.203125 204.882812 95.273438 204.75 95.375 204.628906 C 95.472656 204.507812 95.589844 204.410156 95.730469 204.339844 C 95.867188 204.265625 96.015625 204.222656 96.171875 204.210938 C 96.308594 204.21875 96.441406 204.253906 96.5625 204.316406 C 96.6875 204.382812 96.792969 204.464844 96.878906 204.574219 C 96.96875 204.679688 97.03125 204.800781 97.070312 204.933594 C 97.109375 205.066406 97.121094 205.199219 97.101562 205.339844 C 97.121094 205.496094 97.105469 205.648438 97.058594 205.800781 C 97.011719 205.949219 96.9375 206.085938 96.835938 206.207031 C 96.730469 206.324219 96.609375 206.421875 96.46875 206.488281 C 96.324219 206.558594 96.175781 206.597656 96.019531 206.605469 C 95.882812 206.597656 95.753906 206.558594 95.632812 206.496094 C 95.511719 206.433594 95.410156 206.351562 95.324219 206.246094 C 95.238281 206.140625 95.175781 206.019531 95.140625 205.890625 C 95.105469 205.757812 95.097656 205.625 95.117188 205.492188 " fill-opacity="1" fill-rule="nonzero"/><path fill="#231f20" d="M 106.121094 216.3125 C 105.457031 216.660156 104.746094 216.820312 103.996094 216.800781 C 102.148438 216.800781 100.941406 215.394531 100.941406 213.304688 C 100.941406 210.253906 102.894531 207.65625 105.632812 207.65625 C 106.167969 207.652344 106.675781 207.765625 107.160156 207.992188 L 106.703125 209.625 C 106.359375 209.441406 105.992188 209.347656 105.601562 209.351562 C 103.890625 209.351562 102.820312 211.230469 102.820312 213.046875 C 102.820312 214.359375 103.460938 215.089844 104.441406 215.089844 C 104.984375 215.078125 105.492188 214.941406 105.96875 214.679688 Z M 106.121094 216.3125 " fill-opacity="1" fill-rule="nonzero"/><path fill="#231f20" d="M 111.011719 216.632812 L 113.058594 203.859375 L 114.800781 203.859375 L 113.566406 211.671875 L 114.238281 210.742188 L 116.453125 207.886719 L 118.640625 207.886719 L 115.460938 211.503906 L 117.585938 216.648438 L 115.628906 216.648438 L 114.097656 212.632812 L 113.242188 213.609375 L 112.753906 216.660156 Z M 111.011719 216.632812 " fill-opacity="1" fill-rule="nonzero"/><path fill="#231f20" d="M 133.433594 216.632812 C 133.433594 216.113281 133.433594 215.410156 133.570312 214.648438 C 132.835938 216.265625 131.875 216.828125 130.941406 216.828125 C 129.628906 216.828125 128.757812 215.609375 128.757812 213.777344 C 128.757812 210.726562 130.515625 207.671875 133.953125 207.671875 C 134.71875 207.679688 135.464844 207.8125 136.183594 208.070312 L 135.421875 212.648438 C 135.210938 213.972656 135.105469 215.304688 135.113281 216.648438 Z M 134.167969 209.382812 C 133.925781 209.316406 133.683594 209.285156 133.433594 209.289062 C 131.796875 209.289062 130.546875 211.472656 130.546875 213.457031 C 130.546875 214.371094 130.835938 215.136719 131.601562 215.136719 C 132.363281 215.136719 133.417969 213.914062 133.769531 211.6875 Z M 134.167969 209.382812 " fill-opacity="1" fill-rule="nonzero"/><path fill="#231f20" d="M 140.449219 216.632812 L 141.367188 210.632812 C 141.550781 209.597656 141.65625 208.664062 141.75 207.917969 L 143.277344 207.917969 L 143.125 209.445312 C 143.363281 208.921875 143.71875 208.5 144.195312 208.179688 C 144.667969 207.859375 145.195312 207.683594 145.769531 207.65625 C 146.808594 207.65625 147.648438 208.421875 147.648438 210.070312 C 147.640625 210.582031 147.59375 211.089844 147.511719 211.59375 L 146.699219 216.691406 L 145.035156 216.691406 L 145.828125 211.746094 C 145.898438 211.378906 145.9375 211.007812 145.953125 210.632812 C 145.953125 209.917969 145.722656 209.367188 145.035156 209.367188 C 144.347656 209.367188 143.199219 210.527344 142.878906 212.570312 L 142.238281 216.617188 Z M 140.449219 216.632812 " fill-opacity="1" fill-rule="nonzero"/><path fill="#231f20" d="M 160.699219 203.84375 L 159.171875 213.503906 C 159.003906 214.515625 158.894531 215.53125 158.835938 216.554688 L 157.214844 216.554688 L 157.367188 215.027344 C 157.148438 215.539062 156.8125 215.953125 156.359375 216.273438 C 155.90625 216.589844 155.402344 216.765625 154.847656 216.800781 C 153.53125 216.800781 152.601562 215.515625 152.601562 213.546875 C 152.601562 210.496094 154.496094 207.644531 157.183594 207.644531 C 157.582031 207.640625 157.957031 207.722656 158.316406 207.886719 L 158.972656 203.828125 Z M 158.042969 209.625 C 157.746094 209.398438 157.410156 209.285156 157.03125 209.289062 C 155.503906 209.289062 154.402344 211.289062 154.402344 213.257812 C 154.402344 214.3125 154.753906 215.152344 155.582031 215.152344 C 156.40625 215.152344 157.308594 214.128906 157.613281 212.3125 Z M 158.042969 209.625 " fill-opacity="1" fill-rule="nonzero"/><path fill="#231f20" d="M 174.503906 205.445312 L 174.121094 207.855469 L 175.785156 207.855469 L 175.511719 209.472656 L 173.859375 209.472656 L 173.265625 213.015625 C 173.195312 213.425781 173.15625 213.835938 173.140625 214.25 C 173.140625 214.722656 173.324219 215.027344 173.800781 215.027344 C 174.003906 215.046875 174.207031 215.046875 174.410156 215.027344 L 174.242188 216.660156 C 173.871094 216.789062 173.488281 216.851562 173.097656 216.84375 C 172.855469 216.863281 172.617188 216.832031 172.390625 216.746094 C 172.164062 216.660156 171.964844 216.53125 171.792969 216.355469 C 171.625 216.183594 171.5 215.980469 171.417969 215.75 C 171.339844 215.523438 171.3125 215.285156 171.339844 215.042969 C 171.34375 214.496094 171.398438 213.949219 171.507812 213.410156 L 172.148438 209.503906 L 171.15625 209.503906 L 171.414062 207.886719 L 172.410156 207.886719 L 172.714844 205.996094 Z M 174.503906 205.445312 " fill-opacity="1" fill-rule="nonzero"/><path fill="#231f20" d="M 179.425781 216.632812 L 181.457031 203.859375 L 183.230469 203.859375 L 182.359375 209.109375 C 182.613281 208.664062 182.960938 208.304688 183.394531 208.035156 C 183.832031 207.765625 184.308594 207.613281 184.820312 207.582031 C 185.828125 207.582031 186.667969 208.34375 186.667969 209.933594 C 186.664062 210.445312 186.621094 210.953125 186.546875 211.457031 L 185.691406 216.632812 L 184.007812 216.632812 L 184.804688 211.71875 C 184.859375 211.339844 184.890625 210.957031 184.894531 210.574219 C 184.894531 209.902344 184.636719 209.382812 183.980469 209.382812 C 183.320312 209.382812 182.144531 210.601562 181.855469 212.433594 L 181.105469 216.632812 Z M 179.425781 216.632812 " fill-opacity="1" fill-rule="nonzero"/><path fill="#231f20" d="M 197.183594 216.128906 C 196.378906 216.589844 195.515625 216.820312 194.585938 216.816406 C 192.539062 216.816406 191.527344 215.289062 191.527344 213.199219 C 191.527344 210.558594 193.164062 207.671875 195.703125 207.671875 C 196.027344 207.660156 196.34375 207.710938 196.648438 207.832031 C 196.953125 207.953125 197.21875 208.132812 197.445312 208.367188 C 197.675781 208.601562 197.84375 208.875 197.957031 209.179688 C 198.066406 209.488281 198.109375 209.804688 198.085938 210.128906 C 198.085938 212.390625 196.097656 213.105469 193.257812 213.03125 C 193.230469 213.457031 193.296875 213.867188 193.453125 214.265625 C 193.585938 214.5625 193.792969 214.796875 194.074219 214.960938 C 194.355469 215.125 194.660156 215.195312 194.984375 215.167969 C 195.71875 215.167969 196.394531 214.976562 197.015625 214.585938 Z M 195.503906 209.230469 C 194.402344 209.230469 193.667969 210.40625 193.453125 211.457031 C 195.273438 211.457031 196.433594 211.183594 196.433594 210.144531 C 196.445312 210.019531 196.425781 209.898438 196.382812 209.78125 C 196.339844 209.664062 196.273438 209.558594 196.183594 209.472656 C 196.09375 209.382812 195.988281 209.316406 195.871094 209.277344 C 195.75 209.234375 195.628906 209.21875 195.503906 209.230469 " fill-opacity="1" fill-rule="nonzero"/><path fill="#231f20" d="M 211.015625 207.855469 L 211.152344 212.113281 C 211.152344 213.136719 211.152344 213.839844 211.152344 214.707031 C 211.382812 213.929688 211.6875 213.183594 212.011719 212.238281 L 213.796875 207.839844 L 215.328125 207.839844 L 215.632812 212.128906 C 215.632812 213.121094 215.722656 213.929688 215.632812 214.707031 C 215.863281 213.871094 216.089844 213.074219 216.394531 212.128906 L 217.925781 207.839844 L 219.714844 207.839844 L 216.257812 216.632812 L 214.609375 216.632812 L 214.273438 212.816406 C 214.273438 211.945312 214.273438 211.167969 214.273438 210.222656 C 213.90625 211.289062 213.722656 211.945312 213.402344 212.726562 L 211.765625 216.632812 L 210.113281 216.632812 L 209.441406 207.871094 Z M 211.015625 207.855469 " fill-opacity="1" fill-rule="nonzero"/><path fill="#231f20" d="M 230.59375 211.304688 C 230.59375 214.28125 228.835938 216.828125 226.332031 216.828125 C 224.464844 216.828125 223.273438 215.304688 223.273438 213.214844 C 223.273438 210.253906 225.015625 207.671875 227.523438 207.671875 C 229.511719 207.671875 230.582031 209.367188 230.582031 211.304688 M 225.125 213.167969 C 225.125 214.371094 225.675781 215.210938 226.558594 215.210938 C 227.875 215.210938 228.761719 213.058594 228.761719 211.304688 C 228.761719 210.40625 228.425781 209.289062 227.355469 209.289062 C 225.949219 209.289062 225.125 211.519531 225.125 213.167969 " fill-opacity="1" fill-rule="nonzero"/><path fill="#231f20" d="M 235.011719 216.632812 L 235.867188 211.230469 C 236.066406 209.992188 236.160156 208.648438 236.25 207.871094 L 237.777344 207.871094 C 237.777344 208.46875 237.6875 209.078125 237.609375 209.71875 C 238.113281 208.527344 238.910156 207.671875 239.933594 207.671875 L 240.316406 207.671875 L 239.964844 209.734375 L 239.628906 209.734375 C 238.375 209.734375 237.566406 211.257812 237.273438 213.121094 L 236.710938 216.648438 Z M 235.011719 216.632812 " fill-opacity="1" fill-rule="nonzero"/><path fill="#231f20" d="M 243.90625 216.617188 L 245.972656 203.84375 L 247.730469 203.84375 L 245.679688 216.617188 Z M 243.90625 216.617188 " fill-opacity="1" fill-rule="nonzero"/><path fill="#231f20" d="M 259.605469 203.84375 L 258.078125 213.503906 C 257.910156 214.515625 257.796875 215.53125 257.738281 216.554688 L 256.121094 216.554688 L 256.273438 215.027344 C 256.054688 215.539062 255.71875 215.953125 255.261719 216.273438 C 254.808594 216.589844 254.304688 216.765625 253.75 216.800781 C 252.4375 216.800781 251.503906 215.515625 251.503906 213.546875 C 251.503906 210.496094 253.398438 207.644531 256.089844 207.644531 C 256.484375 207.640625 256.863281 207.722656 257.21875 207.886719 L 257.878906 203.828125 Z M 256.945312 209.625 C 256.648438 209.398438 256.3125 209.285156 255.9375 209.289062 C 254.40625 209.289062 253.308594 211.289062 253.308594 213.257812 C 253.308594 214.3125 253.660156 215.152344 254.484375 215.152344 C 255.308594 215.152344 256.210938 214.128906 256.515625 212.3125 Z M 256.945312 209.625 " fill-opacity="1" fill-rule="nonzero"/><path fill="#231f20" d="M 269.632812 216.632812 L 271.023438 207.871094 L 272.808594 207.871094 L 271.402344 216.632812 Z M 271.3125 205.492188 C 271.296875 205.335938 271.308594 205.183594 271.355469 205.035156 C 271.398438 204.882812 271.46875 204.75 271.570312 204.628906 C 271.667969 204.507812 271.789062 204.410156 271.925781 204.339844 C 272.0625 204.265625 272.210938 204.222656 272.367188 204.210938 C 272.503906 204.21875 272.636719 204.253906 272.757812 204.316406 C 272.882812 204.382812 272.988281 204.464844 273.078125 204.574219 C 273.164062 204.679688 273.226562 204.800781 273.265625 204.933594 C 273.304688 205.066406 273.316406 205.199219 273.300781 205.339844 C 273.316406 205.496094 273.300781 205.648438 273.253906 205.800781 C 273.207031 205.949219 273.132812 206.085938 273.03125 206.207031 C 272.929688 206.324219 272.804688 206.421875 272.664062 206.488281 C 272.523438 206.558594 272.371094 206.597656 272.214844 206.605469 C 272.078125 206.597656 271.949219 206.558594 271.828125 206.496094 C 271.707031 206.433594 271.605469 206.351562 271.519531 206.246094 C 271.433594 206.140625 271.375 206.019531 271.335938 205.890625 C 271.300781 205.757812 271.292969 205.625 271.3125 205.492188 " fill-opacity="1" fill-rule="nonzero"/><path fill="#231f20" d="M 277.226562 214.664062 C 277.765625 215.019531 278.355469 215.21875 279 215.257812 C 279.148438 215.265625 279.292969 215.242188 279.429688 215.1875 C 279.566406 215.136719 279.691406 215.058594 279.796875 214.957031 C 279.902344 214.855469 279.988281 214.734375 280.042969 214.601562 C 280.101562 214.464844 280.132812 214.324219 280.132812 214.175781 C 280.132812 213.609375 279.886719 213.273438 279.167969 212.832031 C 278.722656 212.617188 278.363281 212.308594 278.089844 211.898438 C 277.8125 211.488281 277.664062 211.035156 277.640625 210.542969 C 277.628906 210.140625 277.699219 209.753906 277.851562 209.382812 C 278.003906 209.011719 278.226562 208.691406 278.519531 208.414062 C 278.8125 208.140625 279.148438 207.933594 279.527344 207.804688 C 279.90625 207.671875 280.296875 207.621094 280.695312 207.65625 C 281.324219 207.640625 281.902344 207.792969 282.4375 208.117188 L 281.980469 209.640625 C 281.5625 209.375 281.101562 209.242188 280.605469 209.246094 C 280.460938 209.230469 280.320312 209.25 280.183594 209.296875 C 280.046875 209.339844 279.925781 209.414062 279.820312 209.511719 C 279.714844 209.609375 279.632812 209.722656 279.574219 209.855469 C 279.515625 209.984375 279.488281 210.125 279.488281 210.269531 C 279.488281 210.757812 279.824219 211.089844 280.4375 211.472656 C 280.882812 211.703125 281.242188 212.027344 281.515625 212.445312 C 281.785156 212.863281 281.9375 213.324219 281.964844 213.824219 C 281.980469 214.027344 281.972656 214.230469 281.941406 214.433594 C 281.910156 214.632812 281.859375 214.832031 281.789062 215.023438 C 281.714844 215.214844 281.625 215.394531 281.511719 215.566406 C 281.402344 215.738281 281.273438 215.898438 281.128906 216.042969 C 280.984375 216.1875 280.828125 216.3125 280.65625 216.425781 C 280.484375 216.535156 280.300781 216.625 280.109375 216.699219 C 279.917969 216.769531 279.722656 216.820312 279.519531 216.851562 C 279.316406 216.882812 279.113281 216.890625 278.910156 216.875 C 278.148438 216.898438 277.460938 216.691406 276.84375 216.25 Z M 277.226562 214.664062 " fill-opacity="1" fill-rule="nonzero"/><g clip-path="url(#febae05d14)"><path fill="#231f20" d="M 295.355469 207.855469 L 295.933594 212.082031 C 296.074219 213.015625 296.164062 213.609375 296.226562 214.265625 C 296.410156 213.730469 296.59375 213.136719 296.945312 212.175781 L 298.472656 207.855469 L 300.335938 207.855469 L 297.648438 214.3125 C 297.003906 216.058594 296.105469 217.667969 294.957031 219.132812 C 294.355469 219.875 293.59375 220.382812 292.679688 220.660156 L 292.265625 218.859375 C 292.746094 218.683594 293.179688 218.429688 293.566406 218.097656 C 294.117188 217.605469 294.550781 217.023438 294.867188 216.355469 C 294.910156 216.21875 294.910156 216.082031 294.867188 215.945312 L 293.335938 207.871094 Z M 295.355469 207.855469 " fill-opacity="1" fill-rule="nonzero"/></g><path fill="#231f20" d="M 311.25 211.304688 C 311.25 214.28125 309.492188 216.828125 306.984375 216.828125 C 305.121094 216.828125 303.929688 215.304688 303.929688 213.214844 C 303.929688 210.253906 305.671875 207.671875 308.179688 207.671875 C 310.164062 207.671875 311.234375 209.367188 311.234375 211.304688 M 305.761719 213.167969 C 305.761719 214.371094 306.3125 215.210938 307.199219 215.210938 C 308.515625 215.210938 309.402344 213.058594 309.402344 211.304688 C 309.402344 210.40625 309.0625 209.289062 307.996094 209.289062 C 306.589844 209.289062 305.761719 211.519531 305.761719 213.167969 " fill-opacity="1" fill-rule="nonzero"/><path fill="#231f20" d="M 323.246094 207.855469 L 322.285156 213.960938 C 322.117188 215 322.011719 215.914062 321.917969 216.675781 L 320.390625 216.675781 L 320.542969 215.152344 C 320.292969 215.640625 319.945312 216.035156 319.488281 216.34375 C 319.035156 216.648438 318.535156 216.828125 317.992188 216.875 C 316.921875 216.875 316.0625 216.1875 316.0625 214.386719 C 316.070312 213.875 316.121094 213.367188 316.21875 212.863281 L 316.996094 207.949219 L 318.664062 207.949219 L 317.898438 212.726562 C 317.824219 213.125 317.785156 213.523438 317.777344 213.929688 C 317.777344 214.648438 318.019531 215.167969 318.707031 215.167969 C 319.394531 215.167969 320.480469 214.007812 320.773438 212.191406 L 321.445312 207.933594 Z M 323.246094 207.855469 " fill-opacity="1" fill-rule="nonzero"/><path fill="#231f20" d="M 327.558594 216.632812 L 328.414062 211.230469 C 328.613281 209.992188 328.703125 208.648438 328.796875 207.871094 L 330.324219 207.871094 C 330.324219 208.46875 330.234375 209.078125 330.15625 209.71875 C 330.660156 208.527344 331.457031 207.671875 332.464844 207.671875 L 332.847656 207.671875 L 332.496094 209.734375 L 332.160156 209.734375 C 330.90625 209.734375 330.09375 211.257812 329.804688 213.121094 L 329.363281 216.632812 Z M 327.558594 216.632812 " fill-opacity="1" fill-rule="nonzero"/><g clip-path="url(#bf3dd952a0)"><path fill="#231f20" d="M 336.636719 214.664062 C 337.171875 215.023438 337.765625 215.21875 338.410156 215.257812 C 338.558594 215.265625 338.699219 215.242188 338.839844 215.1875 C 338.976562 215.136719 339.101562 215.058594 339.207031 214.957031 C 339.3125 214.855469 339.394531 214.734375 339.453125 214.601562 C 339.511719 214.464844 339.542969 214.324219 339.539062 214.175781 C 339.539062 213.609375 339.296875 213.273438 338.578125 212.832031 C 338.148438 212.609375 337.800781 212.292969 337.542969 211.882812 C 337.28125 211.472656 337.144531 211.027344 337.125 210.542969 C 337.113281 210.140625 337.183594 209.753906 337.335938 209.382812 C 337.492188 209.011719 337.714844 208.691406 338.003906 208.414062 C 338.296875 208.140625 338.632812 207.933594 339.011719 207.804688 C 339.390625 207.671875 339.78125 207.621094 340.183594 207.65625 C 340.808594 207.640625 341.390625 207.792969 341.925781 208.117188 L 341.464844 209.640625 C 341.046875 209.375 340.589844 209.242188 340.089844 209.246094 C 339.949219 209.230469 339.808594 209.25 339.671875 209.296875 C 339.535156 209.339844 339.414062 209.414062 339.308594 209.511719 C 339.199219 209.609375 339.117188 209.722656 339.0625 209.855469 C 339.003906 209.984375 338.976562 210.125 338.976562 210.269531 C 338.976562 210.757812 339.3125 211.089844 339.921875 211.472656 C 340.367188 211.703125 340.726562 212.027344 341 212.445312 C 341.273438 212.863281 341.421875 213.324219 341.453125 213.824219 C 341.464844 214.03125 341.453125 214.238281 341.421875 214.441406 C 341.390625 214.648438 341.339844 214.847656 341.265625 215.039062 C 341.1875 215.234375 341.09375 215.417969 340.980469 215.589844 C 340.867188 215.761719 340.734375 215.921875 340.585938 216.066406 C 340.4375 216.210938 340.273438 216.339844 340.097656 216.449219 C 339.921875 216.558594 339.734375 216.648438 339.539062 216.71875 C 339.34375 216.789062 339.144531 216.835938 338.9375 216.863281 C 338.730469 216.890625 338.523438 216.894531 338.316406 216.875 C 337.558594 216.898438 336.871094 216.691406 336.253906 216.25 Z M 336.636719 214.664062 " fill-opacity="1" fill-rule="nonzero"/></g></svg>